<?xml version="1.0" encoding="UTF-8" standalone="no"?><svg xmlns="http://www.w3.org/2000/svg" xmlns:xlink="http://www.w3.org/1999/xlink" contentScriptType="application/ecmascript" contentStyleType="text/css" height="357px" preserveAspectRatio="none" style="width:376px;height:357px;" version="1.1" viewBox="0 0 376 357" width="376px" zoomAndPan="magnify"><defs><filter height="300%" id="fl6mdvk0x5clk" width="300%" x="-1" y="-1"><feGaussianBlur result="blurOut" stdDeviation="2.0"/><feColorMatrix in="blurOut" result="blurOut2" type="matrix" values="0 0 0 0 0 0 0 0 0 0 0 0 0 0 0 0 0 0 .4 0"/><feOffset dx="4.0" dy="4.0" in="blurOut2" result="blurOut3"/><feBlend in="SourceGraphic" in2="blurOut3" mode="normal"/></filter></defs><g><!--cluster Docker--><polygon fill="#FFFFFF" filter="url(#fl6mdvk0x5clk)" points="14,26,24,16,354,16,354,335,344,345,14,345,14,26" style="stroke: #000000; stroke-width: 1.5;"/><line style="stroke: #000000; stroke-width: 1.5;" x1="344" x2="353" y1="26" y2="17"/><line style="stroke: #000000; stroke-width: 1.5;" x1="14" x2="344" y1="26" y2="26"/><line style="stroke: #000000; stroke-width: 1.5;" x1="344" x2="344" y1="26" y2="345"/><text fill="#000000" font-family="sans-serif" font-size="14" font-weight="bold" lengthAdjust="spacingAndGlyphs" textLength="50" x="155" y="42.5352">Docker</text><!--cluster Java Program--><polygon fill="#FFFFFF" filter="url(#fl6mdvk0x5clk)" points="174,58,184,48,346,48,346,327,336,337,174,337,174,58" style="stroke: #000000; stroke-width: 1.5;"/><line style="stroke: #000000; stroke-width: 1.5;" x1="336" x2="345" y1="58" y2="49"/><line style="stroke: #000000; stroke-width: 1.5;" x1="174" x2="336" y1="58" y2="58"/><line style="stroke: #000000; stroke-width: 1.5;" x1="336" x2="336" y1="58" y2="337"/><text fill="#000000" font-family="sans-serif" font-size="14" font-weight="bold" lengthAdjust="spacingAndGlyphs" textLength="96" x="208" y="74.5352">Java Program</text><!--entity Cassandra--><path d="M22,192.5 C22,182.5 68,182.5 68,182.5 C68,182.5 114,182.5 114,192.5 L114,217.9883 C114,227.9883 68,227.9883 68,227.9883 C68,227.9883 22,227.9883 22,217.9883 L22,192.5 " fill="#FEFECE" filter="url(#fl6mdvk0x5clk)" style="stroke: #000000; stroke-width: 1.5;"/><path d="M22,192.5 C22,202.5 68,202.5 68,202.5 C68,202.5 114,202.5 114,192.5 " fill="none" style="stroke: #000000; stroke-width: 1.5;"/><text fill="#000000" font-family="sans-serif" font-size="14" lengthAdjust="spacingAndGlyphs" textLength="72" x="32" y="220.0352">Cassandra</text><!--entity Datastax Native--><rect fill="#FEFECE" filter="url(#fl6mdvk0x5clk)" height="36.4883" style="stroke: #A80036; stroke-width: 1.5;" width="126" x="197" y="80"/><rect fill="#FEFECE" height="5" style="stroke: #A80036; stroke-width: 1.5;" width="10" x="192" y="85"/><rect fill="#FEFECE" height="5" style="stroke: #A80036; stroke-width: 1.5;" width="10" x="192" y="106.4883"/><text fill="#000000" font-family="sans-serif" font-size="14" lengthAdjust="spacingAndGlyphs" textLength="106" x="207" y="103.5352">Datastax Native</text><!--entity Datastax ORM--><rect fill="#FEFECE" filter="url(#fl6mdvk0x5clk)" height="36.4883" style="stroke: #A80036; stroke-width: 1.5;" width="116" x="202" y="151"/><rect fill="#FEFECE" height="5" style="stroke: #A80036; stroke-width: 1.5;" width="10" x="197" y="156"/><rect fill="#FEFECE" height="5" style="stroke: #A80036; stroke-width: 1.5;" width="10" x="197" y="177.4883"/><text fill="#000000" font-family="sans-serif" font-size="14" lengthAdjust="spacingAndGlyphs" textLength="96" x="212" y="174.5352">Datastax ORM</text><!--entity Kundera--><rect fill="#FEFECE" filter="url(#fl6mdvk0x5clk)" height="36.4883" style="stroke: #A80036; stroke-width: 1.5;" width="78" x="221" y="222"/><rect fill="#FEFECE" height="5" style="stroke: #A80036; stroke-width: 1.5;" width="10" x="216" y="227"/><rect fill="#FEFECE" height="5" style="stroke: #A80036; stroke-width: 1.5;" width="10" x="216" y="248.4883"/><text fill="#000000" font-family="sans-serif" font-size="14" lengthAdjust="spacingAndGlyphs" textLength="58" x="231" y="245.5352">Kundera</text><!--entity Achilles--><rect fill="#FEFECE" filter="url(#fl6mdvk0x5clk)" height="36.4883" style="stroke: #A80036; stroke-width: 1.5;" width="73" x="223.5" y="293"/><rect fill="#FEFECE" height="5" style="stroke: #A80036; stroke-width: 1.5;" width="10" x="218.5" y="298"/><rect fill="#FEFECE" height="5" style="stroke: #A80036; stroke-width: 1.5;" width="10" x="218.5" y="319.4883"/><text fill="#000000" font-family="sans-serif" font-size="14" lengthAdjust="spacingAndGlyphs" textLength="53" x="233.5" y="316.5352">Achilles</text><!--link Cassandra to Datastax Native--><path d="M101.7767,179.3673 C122.05,164.6765 148.7323,146.5289 174,133 C183.982,127.6554 194.9609,122.6087 205.638,118.0988 " fill="none" id="Cassandra-Datastax Native" style="stroke: #A80036; stroke-width: 1.0;"/><polygon fill="#A80036" points="210.5178,116.0653,200.6716,115.835,205.9025,117.9886,203.7489,123.2195,210.5178,116.0653" style="stroke: #A80036; stroke-width: 1.0;"/><polygon fill="#A80036" points="97.5507,182.4467,107.1801,180.3793,101.5917,179.5021,102.4688,173.9137,97.5507,182.4467" style="stroke: #A80036; stroke-width: 1.0;"/><!--link Cassandra to Datastax ORM--><path d="M119.4867,195.3462 C143.3138,190.8787 171.8394,185.5301 196.9445,180.8229 " fill="none" id="Cassandra-Datastax ORM" style="stroke: #A80036; stroke-width: 1.0;"/><polygon fill="#A80036" points="201.9175,179.8905,192.3345,177.6176,197.0031,180.8119,193.8088,185.4806,201.9175,179.8905" style="stroke: #A80036; stroke-width: 1.0;"/><polygon fill="#A80036" points="114.4778,196.2854,124.0608,198.5583,119.3922,195.364,122.5865,190.6953,114.4778,196.2854" style="stroke: #A80036; stroke-width: 1.0;"/><!--link Cassandra to Kundera--><path d="M119.5095,214.3898 C149.4628,219.85 186.8356,226.6627 215.5036,231.8887 " fill="none" id="Cassandra-Kundera" style="stroke: #A80036; stroke-width: 1.0;"/><polygon fill="#A80036" points="220.7515,232.8453,212.6148,227.2961,215.8326,231.9486,211.1801,235.1664,220.7515,232.8453" style="stroke: #A80036; stroke-width: 1.0;"/><polygon fill="#A80036" points="114.4778,213.4725,122.6143,219.022,119.3967,214.3694,124.0493,211.1517,114.4778,213.4725" style="stroke: #A80036; stroke-width: 1.0;"/><!--link Cassandra to Achilles--><path d="M103.2583,230.6908 C123.4069,244.7503 149.476,261.918 174,275 C188.1137,282.5288 204.1471,289.6098 218.5146,295.4668 " fill="none" id="Cassandra-Achilles" style="stroke: #A80036; stroke-width: 1.0;"/><polygon fill="#A80036" points="223.318,297.405,216.4687,290.3278,218.6813,295.534,213.4751,297.7466,223.318,297.405" style="stroke: #A80036; stroke-width: 1.0;"/><polygon fill="#A80036" points="99.0513,227.7404,104.1229,236.1831,103.1449,230.6114,108.7165,229.6333,99.0513,227.7404" style="stroke: #A80036; stroke-width: 1.0;"/><!--
@startuml
left to right direction

node "Docker" {
    node "Java Program" {
        [Datastax Native]
        [Datastax ORM]
        [Kundera]
        [Achilles]
    }

    database Cassandra
    [Cassandra] <-down-> [Datastax Native]
    [Cassandra] <-down-> [Datastax ORM]
    [Cassandra] <-down-> [Kundera]
    [Cassandra] <-down-> [Achilles]
}
@enduml

PlantUML version 1.2018.12(Sun Oct 21 11:15:15 WEST 2018)
(GPL source distribution)
Java Runtime: Java(TM) SE Runtime Environment
JVM: Java HotSpot(TM) 64-Bit Server VM
Java Version: 10.0.1+10
Operating System: Mac OS X
OS Version: 10.13.6
Default Encoding: US-ASCII
Language: en
Country: PT
--></g></svg>