<?xml version="1.0" encoding="UTF-8" standalone="no"?><svg xmlns="http://www.w3.org/2000/svg" xmlns:xlink="http://www.w3.org/1999/xlink" contentScriptType="application/ecmascript" contentStyleType="text/css" height="367px" preserveAspectRatio="none" style="width:509px;height:367px;" version="1.1" viewBox="0 0 509 367" width="509px" zoomAndPan="magnify"><defs><filter height="300%" id="fnokftbwqf34b" width="300%" x="-1" y="-1"><feGaussianBlur result="blurOut" stdDeviation="2.0"/><feColorMatrix in="blurOut" result="blurOut2" type="matrix" values="0 0 0 0 0 0 0 0 0 0 0 0 0 0 0 0 0 0 .4 0"/><feOffset dx="4.0" dy="4.0" in="blurOut2" result="blurOut3"/><feBlend in="SourceGraphic" in2="blurOut3" mode="normal"/></filter></defs><g><!--class Main--><rect fill="#FEFECE" filter="url(#fnokftbwqf34b)" height="60.9551" id="Main" style="stroke: #A80036; stroke-width: 1.5;" width="60" x="6" y="152"/><ellipse cx="21.45" cy="168" fill="#ADD1B2" rx="11" ry="11" style="stroke: #A80036; stroke-width: 1.0;"/><path d="M23.9231,174.1431 Q23.3421,174.4419 22.7029,174.5913 Q22.0638,174.7407 21.3582,174.7407 Q18.8514,174.7407 17.5315,173.0889 Q16.2117,171.437 16.2117,168.3159 Q16.2117,165.1865 17.5315,163.5347 Q18.8514,161.8828 21.3582,161.8828 Q22.0638,161.8828 22.7112,162.0322 Q23.3587,162.1816 23.9231,162.4805 L23.9231,165.2031 Q23.2923,164.6221 22.6988,164.3523 Q22.1053,164.0825 21.4744,164.0825 Q20.1297,164.0825 19.4449,165.1492 Q18.7601,166.2158 18.7601,168.3159 Q18.7601,170.4077 19.4449,171.4744 Q20.1297,172.541 21.4744,172.541 Q22.1053,172.541 22.6988,172.2712 Q23.2923,172.0015 23.9231,171.4204 Z "/><text fill="#000000" font-family="sans-serif" font-size="12" lengthAdjust="spacingAndGlyphs" textLength="27" x="35.55" y="172.5352">Main</text><line style="stroke: #A80036; stroke-width: 1.5;" x1="7" x2="65" y1="184" y2="184"/><line style="stroke: #A80036; stroke-width: 1.5;" x1="7" x2="65" y1="192" y2="192"/><ellipse cx="17" cy="203.9775" fill="#84BE84" rx="3" ry="3" style="stroke: #038048; stroke-width: 1.0;"/><text fill="#000000" font-family="sans-serif" font-size="11" lengthAdjust="spacingAndGlyphs" text-decoration="underline" textLength="34" x="26" y="206.6348">main()</text><line style="stroke: #000000; stroke-width: 1.0;" x1="26" x2="60" y1="208.6348" y2="208.6348"/><!--class RunDatastax--><rect fill="#FEFECE" filter="url(#fnokftbwqf34b)" height="60.9551" id="RunDatastax" style="stroke: #A80036; stroke-width: 1.5;" width="105" x="175" y="8"/><ellipse cx="190" cy="24" fill="#ADD1B2" rx="11" ry="11" style="stroke: #A80036; stroke-width: 1.0;"/><path d="M192.4731,30.1431 Q191.8921,30.4419 191.2529,30.5913 Q190.6138,30.7407 189.9082,30.7407 Q187.4014,30.7407 186.0815,29.0889 Q184.7617,27.437 184.7617,24.3159 Q184.7617,21.1865 186.0815,19.5347 Q187.4014,17.8828 189.9082,17.8828 Q190.6138,17.8828 191.2612,18.0322 Q191.9087,18.1816 192.4731,18.4805 L192.4731,21.2031 Q191.8423,20.6221 191.2488,20.3523 Q190.6553,20.0825 190.0244,20.0825 Q188.6797,20.0825 187.9949,21.1492 Q187.3101,22.2158 187.3101,24.3159 Q187.3101,26.4077 187.9949,27.4744 Q188.6797,28.541 190.0244,28.541 Q190.6553,28.541 191.2488,28.2712 Q191.8423,28.0015 192.4731,27.4204 Z "/><text fill="#000000" font-family="sans-serif" font-size="12" lengthAdjust="spacingAndGlyphs" textLength="73" x="204" y="28.5352">RunDatastax</text><line style="stroke: #A80036; stroke-width: 1.5;" x1="176" x2="279" y1="40" y2="40"/><line style="stroke: #A80036; stroke-width: 1.5;" x1="176" x2="279" y1="48" y2="48"/><ellipse cx="186" cy="59.9775" fill="#84BE84" rx="3" ry="3" style="stroke: #038048; stroke-width: 1.0;"/><text fill="#000000" font-family="sans-serif" font-size="11" lengthAdjust="spacingAndGlyphs" textLength="27" x="195" y="62.6348">run()</text><!--class RunDatastaxNative--><rect fill="#FEFECE" filter="url(#fnokftbwqf34b)" height="60.9551" id="RunDatastaxNative" style="stroke: #A80036; stroke-width: 1.5;" width="141" x="157" y="104"/><ellipse cx="172" cy="120" fill="#ADD1B2" rx="11" ry="11" style="stroke: #A80036; stroke-width: 1.0;"/><path d="M174.4731,126.1431 Q173.8921,126.4419 173.2529,126.5913 Q172.6138,126.7407 171.9082,126.7407 Q169.4014,126.7407 168.0815,125.0889 Q166.7617,123.437 166.7617,120.3159 Q166.7617,117.1865 168.0815,115.5347 Q169.4014,113.8828 171.9082,113.8828 Q172.6138,113.8828 173.2612,114.0322 Q173.9087,114.1816 174.4731,114.4805 L174.4731,117.2031 Q173.8423,116.6221 173.2488,116.3523 Q172.6553,116.0825 172.0244,116.0825 Q170.6797,116.0825 169.9949,117.1492 Q169.3101,118.2158 169.3101,120.3159 Q169.3101,122.4077 169.9949,123.4744 Q170.6797,124.541 172.0244,124.541 Q172.6553,124.541 173.2488,124.2712 Q173.8423,124.0015 174.4731,123.4204 Z "/><text fill="#000000" font-family="sans-serif" font-size="12" lengthAdjust="spacingAndGlyphs" textLength="109" x="186" y="124.5352">RunDatastaxNative</text><line style="stroke: #A80036; stroke-width: 1.5;" x1="158" x2="297" y1="136" y2="136"/><line style="stroke: #A80036; stroke-width: 1.5;" x1="158" x2="297" y1="144" y2="144"/><ellipse cx="168" cy="155.9775" fill="#84BE84" rx="3" ry="3" style="stroke: #038048; stroke-width: 1.0;"/><text fill="#000000" font-family="sans-serif" font-size="11" lengthAdjust="spacingAndGlyphs" textLength="27" x="177" y="158.6348">run()</text><!--class RunKundera--><rect fill="#FEFECE" filter="url(#fnokftbwqf34b)" height="60.9551" id="RunKundera" style="stroke: #A80036; stroke-width: 1.5;" width="103" x="176" y="200"/><ellipse cx="191" cy="216" fill="#ADD1B2" rx="11" ry="11" style="stroke: #A80036; stroke-width: 1.0;"/><path d="M193.4731,222.1431 Q192.8921,222.4419 192.2529,222.5913 Q191.6138,222.7407 190.9082,222.7407 Q188.4014,222.7407 187.0815,221.0889 Q185.7617,219.437 185.7617,216.3159 Q185.7617,213.1865 187.0815,211.5347 Q188.4014,209.8828 190.9082,209.8828 Q191.6138,209.8828 192.2612,210.0322 Q192.9087,210.1816 193.4731,210.4805 L193.4731,213.2031 Q192.8423,212.6221 192.2488,212.3523 Q191.6553,212.0825 191.0244,212.0825 Q189.6797,212.0825 188.9949,213.1492 Q188.3101,214.2158 188.3101,216.3159 Q188.3101,218.4077 188.9949,219.4744 Q189.6797,220.541 191.0244,220.541 Q191.6553,220.541 192.2488,220.2712 Q192.8423,220.0015 193.4731,219.4204 Z "/><text fill="#000000" font-family="sans-serif" font-size="12" lengthAdjust="spacingAndGlyphs" textLength="71" x="205" y="220.5352">RunKundera</text><line style="stroke: #A80036; stroke-width: 1.5;" x1="177" x2="278" y1="232" y2="232"/><line style="stroke: #A80036; stroke-width: 1.5;" x1="177" x2="278" y1="240" y2="240"/><ellipse cx="187" cy="251.9775" fill="#84BE84" rx="3" ry="3" style="stroke: #038048; stroke-width: 1.0;"/><text fill="#000000" font-family="sans-serif" font-size="11" lengthAdjust="spacingAndGlyphs" textLength="27" x="196" y="254.6348">run()</text><!--class RunAchilles--><rect fill="#FEFECE" filter="url(#fnokftbwqf34b)" height="60.9551" id="RunAchilles" style="stroke: #A80036; stroke-width: 1.5;" width="97" x="179" y="296"/><ellipse cx="194" cy="312" fill="#ADD1B2" rx="11" ry="11" style="stroke: #A80036; stroke-width: 1.0;"/><path d="M196.4731,318.1431 Q195.8921,318.4419 195.2529,318.5913 Q194.6138,318.7407 193.9082,318.7407 Q191.4014,318.7407 190.0815,317.0889 Q188.7617,315.437 188.7617,312.3159 Q188.7617,309.1865 190.0815,307.5347 Q191.4014,305.8828 193.9082,305.8828 Q194.6138,305.8828 195.2612,306.0322 Q195.9087,306.1816 196.4731,306.4805 L196.4731,309.2031 Q195.8423,308.6221 195.2488,308.3523 Q194.6553,308.0825 194.0244,308.0825 Q192.6797,308.0825 191.9949,309.1492 Q191.3101,310.2158 191.3101,312.3159 Q191.3101,314.4077 191.9949,315.4744 Q192.6797,316.541 194.0244,316.541 Q194.6553,316.541 195.2488,316.2712 Q195.8423,316.0015 196.4731,315.4204 Z "/><text fill="#000000" font-family="sans-serif" font-size="12" lengthAdjust="spacingAndGlyphs" textLength="65" x="208" y="316.5352">RunAchilles</text><line style="stroke: #A80036; stroke-width: 1.5;" x1="180" x2="275" y1="328" y2="328"/><line style="stroke: #A80036; stroke-width: 1.5;" x1="180" x2="275" y1="336" y2="336"/><ellipse cx="190" cy="347.9775" fill="#84BE84" rx="3" ry="3" style="stroke: #038048; stroke-width: 1.0;"/><text fill="#000000" font-family="sans-serif" font-size="11" lengthAdjust="spacingAndGlyphs" textLength="27" x="199" y="350.6348">run()</text><!--class UserDatastax--><rect fill="#FEFECE" filter="url(#fnokftbwqf34b)" height="48" id="UserDatastax" style="stroke: #A80036; stroke-width: 1.5;" width="109" x="389" y="14.5"/><ellipse cx="404" cy="30.5" fill="#ADD1B2" rx="11" ry="11" style="stroke: #A80036; stroke-width: 1.0;"/><path d="M406.4731,36.6431 Q405.8921,36.9419 405.2529,37.0913 Q404.6138,37.2407 403.9082,37.2407 Q401.4014,37.2407 400.0815,35.5889 Q398.7617,33.937 398.7617,30.8159 Q398.7617,27.6865 400.0815,26.0347 Q401.4014,24.3828 403.9082,24.3828 Q404.6138,24.3828 405.2612,24.5322 Q405.9087,24.6816 406.4731,24.9805 L406.4731,27.7031 Q405.8423,27.1221 405.2488,26.8523 Q404.6553,26.5825 404.0244,26.5825 Q402.6797,26.5825 401.9949,27.6492 Q401.3101,28.7158 401.3101,30.8159 Q401.3101,32.9077 401.9949,33.9744 Q402.6797,35.041 404.0244,35.041 Q404.6553,35.041 405.2488,34.7712 Q405.8423,34.5015 406.4731,33.9204 Z "/><text fill="#000000" font-family="sans-serif" font-size="12" lengthAdjust="spacingAndGlyphs" textLength="77" x="418" y="35.0352">UserDatastax</text><line style="stroke: #A80036; stroke-width: 1.5;" x1="390" x2="497" y1="46.5" y2="46.5"/><line style="stroke: #A80036; stroke-width: 1.5;" x1="390" x2="497" y1="54.5" y2="54.5"/><!--class UserKundera--><rect fill="#FEFECE" filter="url(#fnokftbwqf34b)" height="48" id="UserKundera" style="stroke: #A80036; stroke-width: 1.5;" width="107" x="390" y="206.5"/><ellipse cx="405" cy="222.5" fill="#ADD1B2" rx="11" ry="11" style="stroke: #A80036; stroke-width: 1.0;"/><path d="M407.4731,228.6431 Q406.8921,228.9419 406.2529,229.0913 Q405.6138,229.2407 404.9082,229.2407 Q402.4014,229.2407 401.0815,227.5889 Q399.7617,225.937 399.7617,222.8159 Q399.7617,219.6865 401.0815,218.0347 Q402.4014,216.3828 404.9082,216.3828 Q405.6138,216.3828 406.2612,216.5322 Q406.9087,216.6816 407.4731,216.9805 L407.4731,219.7031 Q406.8423,219.1221 406.2488,218.8523 Q405.6553,218.5825 405.0244,218.5825 Q403.6797,218.5825 402.9949,219.6492 Q402.3101,220.7158 402.3101,222.8159 Q402.3101,224.9077 402.9949,225.9744 Q403.6797,227.041 405.0244,227.041 Q405.6553,227.041 406.2488,226.7712 Q406.8423,226.5015 407.4731,225.9204 Z "/><text fill="#000000" font-family="sans-serif" font-size="12" lengthAdjust="spacingAndGlyphs" textLength="75" x="419" y="227.0352">UserKundera</text><line style="stroke: #A80036; stroke-width: 1.5;" x1="391" x2="496" y1="238.5" y2="238.5"/><line style="stroke: #A80036; stroke-width: 1.5;" x1="391" x2="496" y1="246.5" y2="246.5"/><!--class UserAchilles--><rect fill="#FEFECE" filter="url(#fnokftbwqf34b)" height="48" id="UserAchilles" style="stroke: #A80036; stroke-width: 1.5;" width="101" x="393" y="302.5"/><ellipse cx="408" cy="318.5" fill="#ADD1B2" rx="11" ry="11" style="stroke: #A80036; stroke-width: 1.0;"/><path d="M410.4731,324.6431 Q409.8921,324.9419 409.2529,325.0913 Q408.6138,325.2407 407.9082,325.2407 Q405.4014,325.2407 404.0815,323.5889 Q402.7617,321.937 402.7617,318.8159 Q402.7617,315.6865 404.0815,314.0347 Q405.4014,312.3828 407.9082,312.3828 Q408.6138,312.3828 409.2612,312.5322 Q409.9087,312.6816 410.4731,312.9805 L410.4731,315.7031 Q409.8423,315.1221 409.2488,314.8523 Q408.6553,314.5825 408.0244,314.5825 Q406.6797,314.5825 405.9949,315.6492 Q405.3101,316.7158 405.3101,318.8159 Q405.3101,320.9077 405.9949,321.9744 Q406.6797,323.041 408.0244,323.041 Q408.6553,323.041 409.2488,322.7712 Q409.8423,322.5015 410.4731,321.9204 Z "/><text fill="#000000" font-family="sans-serif" font-size="12" lengthAdjust="spacingAndGlyphs" textLength="69" x="422" y="323.0352">UserAchilles</text><line style="stroke: #A80036; stroke-width: 1.5;" x1="394" x2="493" y1="334.5" y2="334.5"/><line style="stroke: #A80036; stroke-width: 1.5;" x1="394" x2="493" y1="342.5" y2="342.5"/><!--link RunDatastax to UserDatastax--><path d="M280.0633,38.5 C311.3565,38.5 351.169,38.5 383.6651,38.5 " fill="none" id="RunDatastax-UserDatastax" style="stroke: #A80036; stroke-width: 1.0;"/><polygon fill="#A80036" points="388.8152,38.5,379.8152,34.5,383.8152,38.5,379.8152,42.5,388.8152,38.5" style="stroke: #A80036; stroke-width: 1.0;"/><text fill="#000000" font-family="sans-serif" font-size="13" lengthAdjust="spacingAndGlyphs" textLength="29" x="329" y="35.0684">uses</text><!--link RunKundera to UserKundera--><path d="M279.2374,230.5 C310.9874,230.5 351.7379,230.5 384.707,230.5 " fill="none" id="RunKundera-UserKundera" style="stroke: #A80036; stroke-width: 1.0;"/><polygon fill="#A80036" points="389.929,230.5,380.929,226.5,384.929,230.5,380.929,234.5,389.929,230.5" style="stroke: #A80036; stroke-width: 1.0;"/><text fill="#000000" font-family="sans-serif" font-size="13" lengthAdjust="spacingAndGlyphs" textLength="29" x="329" y="227.0684">uses</text><!--link RunAchilles to UserAchilles--><path d="M276.2439,326.5 C309.332,326.5 353.1676,326.5 387.661,326.5 " fill="none" id="RunAchilles-UserAchilles" style="stroke: #A80036; stroke-width: 1.0;"/><polygon fill="#A80036" points="392.6801,326.5,383.6801,322.5,387.6801,326.5,383.6801,330.5,392.6801,326.5" style="stroke: #A80036; stroke-width: 1.0;"/><text fill="#000000" font-family="sans-serif" font-size="13" lengthAdjust="spacingAndGlyphs" textLength="29" x="329" y="323.0684">uses</text><!--link Main to RunDatastax--><path d="M66.3543,157.408 C90.5419,137.6612 125.463,109.6989 157,86.5 C163.5192,81.7044 170.4682,76.7686 177.3664,71.971 " fill="none" id="Main-RunDatastax" style="stroke: #A80036; stroke-width: 1.0;"/><polygon fill="#A80036" points="181.6507,69.0042,171.9744,70.8396,177.5401,71.8508,176.5289,77.4165,181.6507,69.0042" style="stroke: #A80036; stroke-width: 1.0;"/><text fill="#000000" font-family="sans-serif" font-size="13" lengthAdjust="spacingAndGlyphs" textLength="29" x="97" y="106.0684">uses</text><!--link Main to RunDatastaxNative--><path d="M66.3437,174.8943 C89.274,169.1467 121.7907,160.9963 151.6171,153.5203 " fill="none" id="Main-RunDatastaxNative" style="stroke: #A80036; stroke-width: 1.0;"/><polygon fill="#A80036" points="156.7642,152.2301,147.0617,150.5384,151.9142,153.4458,149.0068,158.2983,156.7642,152.2301" style="stroke: #A80036; stroke-width: 1.0;"/><text fill="#000000" font-family="sans-serif" font-size="13" lengthAdjust="spacingAndGlyphs" textLength="29" x="97" y="157.0684">uses</text><!--link Main to RunKundera--><path d="M66.3437,190.1057 C94.2885,197.1102 136.471,207.6833 170.6704,216.2555 " fill="none" id="Main-RunKundera" style="stroke: #A80036; stroke-width: 1.0;"/><polygon fill="#A80036" points="175.6556,217.5051,167.8983,211.4368,170.8057,216.2894,165.9531,219.1967,175.6556,217.5051" style="stroke: #A80036; stroke-width: 1.0;"/><text fill="#000000" font-family="sans-serif" font-size="13" lengthAdjust="spacingAndGlyphs" textLength="29" x="97" y="195.0684">uses</text><!--link Main to RunAchilles--><path d="M66.1779,206.7201 C75.7056,214.3459 86.2814,222.789 96,230.5 C123.025,251.9423 129.1698,258.1136 157,278.5 C163.5288,283.2825 170.4833,288.2108 177.3842,293.0047 " fill="none" id="Main-RunAchilles" style="stroke: #A80036; stroke-width: 1.0;"/><polygon fill="#A80036" points="181.6698,295.9697,176.5444,287.5596,177.558,293.1249,171.9927,294.1385,181.6698,295.9697" style="stroke: #A80036; stroke-width: 1.0;"/><text fill="#000000" font-family="sans-serif" font-size="13" lengthAdjust="spacingAndGlyphs" textLength="29" x="97" y="227.0684">uses</text><!--
@startuml
left to right direction

class Main {
    {static} +main()
}

class RunDatastax {
    +run()
}
class RunDatastaxNative {
    +run()
}
class RunKundera {
    +run()
}
class RunAchilles {
    +run()
}

class UserDatastax
class UserKundera
class UserAchilles

RunDatastax - -> UserDatastax: uses
RunKundera - -> UserKundera: uses
RunAchilles - -> UserAchilles: uses

Main - -> RunDatastax: uses
Main - -> RunDatastaxNative: uses
Main - -> RunKundera: uses
Main - -> RunAchilles: uses

@enduml

PlantUML version 1.2018.12(Sun Oct 21 11:15:15 WEST 2018)
(GPL source distribution)
Java Runtime: OpenJDK Runtime Environment
JVM: OpenJDK 64-Bit Server VM
Java Version: 11.0.1+13
Operating System: Mac OS X
OS Version: 10.14.2
Default Encoding: US-ASCII
Language: en
Country: GB
--></g></svg>