<?xml version="1.0" encoding="UTF-8" standalone="no"?><svg xmlns="http://www.w3.org/2000/svg" xmlns:xlink="http://www.w3.org/1999/xlink" contentScriptType="application/ecmascript" contentStyleType="text/css" height="580px" preserveAspectRatio="none" style="width:408px;height:580px;" version="1.1" viewBox="0 0 408 580" width="408px" zoomAndPan="magnify"><defs><filter height="300%" id="f1u2j5lqu58rz2" width="300%" x="-1" y="-1"><feGaussianBlur result="blurOut" stdDeviation="2.0"/><feColorMatrix in="blurOut" result="blurOut2" type="matrix" values="0 0 0 0 0 0 0 0 0 0 0 0 0 0 0 0 0 0 .4 0"/><feOffset dx="4.0" dy="4.0" in="blurOut2" result="blurOut3"/><feBlend in="SourceGraphic" in2="blurOut3" mode="normal"/></filter></defs><g><!--class User--><rect fill="#FEFECE" filter="url(#f1u2j5lqu58rz2)" height="216.416" id="User" style="stroke: #A80036; stroke-width: 1.5;" width="91" x="158" y="8"/><ellipse cx="187.85" cy="24" fill="#B4A7E5" rx="11" ry="11" style="stroke: #A80036; stroke-width: 1.0;"/><path d="M184.2777,20.2651 L184.2777,18.1069 L191.6571,18.1069 L191.6571,20.2651 L189.1918,20.2651 L189.1918,28.3418 L191.6571,28.3418 L191.6571,30.5 L184.2777,30.5 L184.2777,28.3418 L186.7431,28.3418 L186.7431,20.2651 Z "/><text fill="#000000" font-family="sans-serif" font-size="12" font-style="italic" lengthAdjust="spacingAndGlyphs" textLength="26" x="205.15" y="28.5352">User</text><line style="stroke: #A80036; stroke-width: 1.5;" x1="159" x2="248" y1="40" y2="40"/><line style="stroke: #A80036; stroke-width: 1.5;" x1="159" x2="248" y1="48" y2="48"/><text fill="#000000" font-family="sans-serif" font-size="11" font-style="italic" lengthAdjust="spacingAndGlyphs" textLength="35" x="164" y="62.6348">getId()</text><text fill="#000000" font-family="sans-serif" font-size="11" font-style="italic" lengthAdjust="spacingAndGlyphs" textLength="34" x="164" y="75.5898">setId()</text><text fill="#000000" font-family="sans-serif" font-size="11" lengthAdjust="spacingAndGlyphs" textLength="0" x="167" y="88.5449"/><text fill="#000000" font-family="sans-serif" font-size="11" font-style="italic" lengthAdjust="spacingAndGlyphs" textLength="79" x="164" y="101.5">getFirstName()</text><text fill="#000000" font-family="sans-serif" font-size="11" font-style="italic" lengthAdjust="spacingAndGlyphs" textLength="78" x="164" y="114.4551">setFirstName()</text><text fill="#000000" font-family="sans-serif" font-size="11" lengthAdjust="spacingAndGlyphs" textLength="0" x="167" y="127.4102"/><text fill="#000000" font-family="sans-serif" font-size="11" font-style="italic" lengthAdjust="spacingAndGlyphs" textLength="77" x="164" y="140.3652">getLastName()</text><text fill="#000000" font-family="sans-serif" font-size="11" font-style="italic" lengthAdjust="spacingAndGlyphs" textLength="76" x="164" y="153.3203">setLastName()</text><text fill="#000000" font-family="sans-serif" font-size="11" lengthAdjust="spacingAndGlyphs" textLength="0" x="167" y="166.2754"/><text fill="#000000" font-family="sans-serif" font-size="11" font-style="italic" lengthAdjust="spacingAndGlyphs" textLength="46" x="164" y="179.2305">getCity()</text><text fill="#000000" font-family="sans-serif" font-size="11" font-style="italic" lengthAdjust="spacingAndGlyphs" textLength="45" x="164" y="192.1855">setCity()</text><text fill="#000000" font-family="sans-serif" font-size="11" lengthAdjust="spacingAndGlyphs" textLength="0" x="167" y="205.1406"/><text fill="#000000" font-family="sans-serif" font-size="11" font-style="italic" lengthAdjust="spacingAndGlyphs" textLength="51" x="164" y="218.0957">toString()</text><!--class UserDatastax--><rect fill="#FEFECE" filter="url(#f1u2j5lqu58rz2)" height="268.2363" id="UserDatastax" style="stroke: #A80036; stroke-width: 1.5;" width="109" x="6" y="301"/><ellipse cx="21" cy="317" fill="#ADD1B2" rx="11" ry="11" style="stroke: #A80036; stroke-width: 1.0;"/><path d="M23.4731,323.1431 Q22.8921,323.4419 22.2529,323.5913 Q21.6138,323.7407 20.9082,323.7407 Q18.4014,323.7407 17.0815,322.0889 Q15.7617,320.437 15.7617,317.3159 Q15.7617,314.1865 17.0815,312.5347 Q18.4014,310.8828 20.9082,310.8828 Q21.6138,310.8828 22.2612,311.0322 Q22.9087,311.1816 23.4731,311.4805 L23.4731,314.2031 Q22.8423,313.6221 22.2488,313.3523 Q21.6553,313.0825 21.0244,313.0825 Q19.6797,313.0825 18.9949,314.1492 Q18.3101,315.2158 18.3101,317.3159 Q18.3101,319.4077 18.9949,320.4744 Q19.6797,321.541 21.0244,321.541 Q21.6553,321.541 22.2488,321.2712 Q22.8423,321.0015 23.4731,320.4204 Z "/><text fill="#000000" font-family="sans-serif" font-size="12" lengthAdjust="spacingAndGlyphs" textLength="77" x="35" y="321.5352">UserDatastax</text><line style="stroke: #A80036; stroke-width: 1.5;" x1="7" x2="114" y1="333" y2="333"/><rect fill="none" height="6" style="stroke: #C82930; stroke-width: 1.0;" width="6" x="14" y="341.9775"/><text fill="#000000" font-family="sans-serif" font-size="11" lengthAdjust="spacingAndGlyphs" textLength="10" x="26" y="347.6348">id</text><rect fill="none" height="6" style="stroke: #C82930; stroke-width: 1.0;" width="6" x="14" y="354.9326"/><text fill="#000000" font-family="sans-serif" font-size="11" lengthAdjust="spacingAndGlyphs" textLength="52" x="26" y="360.5898">firstName</text><rect fill="none" height="6" style="stroke: #C82930; stroke-width: 1.0;" width="6" x="14" y="367.8877"/><text fill="#000000" font-family="sans-serif" font-size="11" lengthAdjust="spacingAndGlyphs" textLength="49" x="26" y="373.5449">lastName</text><rect fill="none" height="6" style="stroke: #C82930; stroke-width: 1.0;" width="6" x="14" y="380.8428"/><text fill="#000000" font-family="sans-serif" font-size="11" lengthAdjust="spacingAndGlyphs" textLength="19" x="26" y="386.5">city</text><line style="stroke: #A80036; stroke-width: 1.5;" x1="7" x2="114" y1="392.8203" y2="392.8203"/><ellipse cx="17" cy="404.7979" fill="#84BE84" rx="3" ry="3" style="stroke: #038048; stroke-width: 1.0;"/><text fill="#000000" font-family="sans-serif" font-size="11" lengthAdjust="spacingAndGlyphs" textLength="35" x="26" y="407.4551">getId()</text><ellipse cx="17" cy="417.7529" fill="#84BE84" rx="3" ry="3" style="stroke: #038048; stroke-width: 1.0;"/><text fill="#000000" font-family="sans-serif" font-size="11" lengthAdjust="spacingAndGlyphs" textLength="34" x="26" y="420.4102">setId()</text><text fill="#000000" font-family="sans-serif" font-size="11" lengthAdjust="spacingAndGlyphs" textLength="0" x="29" y="433.3652"/><ellipse cx="17" cy="443.6631" fill="#84BE84" rx="3" ry="3" style="stroke: #038048; stroke-width: 1.0;"/><text fill="#000000" font-family="sans-serif" font-size="11" lengthAdjust="spacingAndGlyphs" textLength="79" x="26" y="446.3203">getFirstName()</text><ellipse cx="17" cy="456.6182" fill="#84BE84" rx="3" ry="3" style="stroke: #038048; stroke-width: 1.0;"/><text fill="#000000" font-family="sans-serif" font-size="11" lengthAdjust="spacingAndGlyphs" textLength="78" x="26" y="459.2754">setFirstName()</text><text fill="#000000" font-family="sans-serif" font-size="11" lengthAdjust="spacingAndGlyphs" textLength="0" x="29" y="472.2305"/><ellipse cx="17" cy="482.5283" fill="#84BE84" rx="3" ry="3" style="stroke: #038048; stroke-width: 1.0;"/><text fill="#000000" font-family="sans-serif" font-size="11" lengthAdjust="spacingAndGlyphs" textLength="77" x="26" y="485.1855">getLastName()</text><ellipse cx="17" cy="495.4834" fill="#84BE84" rx="3" ry="3" style="stroke: #038048; stroke-width: 1.0;"/><text fill="#000000" font-family="sans-serif" font-size="11" lengthAdjust="spacingAndGlyphs" textLength="76" x="26" y="498.1406">setLastName()</text><text fill="#000000" font-family="sans-serif" font-size="11" lengthAdjust="spacingAndGlyphs" textLength="0" x="29" y="511.0957"/><ellipse cx="17" cy="521.3936" fill="#84BE84" rx="3" ry="3" style="stroke: #038048; stroke-width: 1.0;"/><text fill="#000000" font-family="sans-serif" font-size="11" lengthAdjust="spacingAndGlyphs" textLength="46" x="26" y="524.0508">getCity()</text><ellipse cx="17" cy="534.3486" fill="#84BE84" rx="3" ry="3" style="stroke: #038048; stroke-width: 1.0;"/><text fill="#000000" font-family="sans-serif" font-size="11" lengthAdjust="spacingAndGlyphs" textLength="45" x="26" y="537.0059">setCity()</text><text fill="#000000" font-family="sans-serif" font-size="11" lengthAdjust="spacingAndGlyphs" textLength="0" x="29" y="549.9609"/><ellipse cx="17" cy="560.2588" fill="#84BE84" rx="3" ry="3" style="stroke: #038048; stroke-width: 1.0;"/><text fill="#000000" font-family="sans-serif" font-size="11" lengthAdjust="spacingAndGlyphs" textLength="51" x="26" y="562.916">toString()</text><!--class UserKundera--><rect fill="#FEFECE" filter="url(#f1u2j5lqu58rz2)" height="268.2363" id="UserKundera" style="stroke: #A80036; stroke-width: 1.5;" width="107" x="150" y="301"/><ellipse cx="165" cy="317" fill="#ADD1B2" rx="11" ry="11" style="stroke: #A80036; stroke-width: 1.0;"/><path d="M167.4731,323.1431 Q166.8921,323.4419 166.2529,323.5913 Q165.6138,323.7407 164.9082,323.7407 Q162.4014,323.7407 161.0815,322.0889 Q159.7617,320.437 159.7617,317.3159 Q159.7617,314.1865 161.0815,312.5347 Q162.4014,310.8828 164.9082,310.8828 Q165.6138,310.8828 166.2612,311.0322 Q166.9087,311.1816 167.4731,311.4805 L167.4731,314.2031 Q166.8423,313.6221 166.2488,313.3523 Q165.6553,313.0825 165.0244,313.0825 Q163.6797,313.0825 162.9949,314.1492 Q162.3101,315.2158 162.3101,317.3159 Q162.3101,319.4077 162.9949,320.4744 Q163.6797,321.541 165.0244,321.541 Q165.6553,321.541 166.2488,321.2712 Q166.8423,321.0015 167.4731,320.4204 Z "/><text fill="#000000" font-family="sans-serif" font-size="12" lengthAdjust="spacingAndGlyphs" textLength="75" x="179" y="321.5352">UserKundera</text><line style="stroke: #A80036; stroke-width: 1.5;" x1="151" x2="256" y1="333" y2="333"/><rect fill="none" height="6" style="stroke: #C82930; stroke-width: 1.0;" width="6" x="158" y="341.9775"/><text fill="#000000" font-family="sans-serif" font-size="11" lengthAdjust="spacingAndGlyphs" textLength="10" x="170" y="347.6348">id</text><rect fill="none" height="6" style="stroke: #C82930; stroke-width: 1.0;" width="6" x="158" y="354.9326"/><text fill="#000000" font-family="sans-serif" font-size="11" lengthAdjust="spacingAndGlyphs" textLength="52" x="170" y="360.5898">firstName</text><rect fill="none" height="6" style="stroke: #C82930; stroke-width: 1.0;" width="6" x="158" y="367.8877"/><text fill="#000000" font-family="sans-serif" font-size="11" lengthAdjust="spacingAndGlyphs" textLength="49" x="170" y="373.5449">lastName</text><rect fill="none" height="6" style="stroke: #C82930; stroke-width: 1.0;" width="6" x="158" y="380.8428"/><text fill="#000000" font-family="sans-serif" font-size="11" lengthAdjust="spacingAndGlyphs" textLength="19" x="170" y="386.5">city</text><line style="stroke: #A80036; stroke-width: 1.5;" x1="151" x2="256" y1="392.8203" y2="392.8203"/><ellipse cx="161" cy="404.7979" fill="#84BE84" rx="3" ry="3" style="stroke: #038048; stroke-width: 1.0;"/><text fill="#000000" font-family="sans-serif" font-size="11" lengthAdjust="spacingAndGlyphs" textLength="35" x="170" y="407.4551">getId()</text><ellipse cx="161" cy="417.7529" fill="#84BE84" rx="3" ry="3" style="stroke: #038048; stroke-width: 1.0;"/><text fill="#000000" font-family="sans-serif" font-size="11" lengthAdjust="spacingAndGlyphs" textLength="34" x="170" y="420.4102">setId()</text><text fill="#000000" font-family="sans-serif" font-size="11" lengthAdjust="spacingAndGlyphs" textLength="0" x="173" y="433.3652"/><ellipse cx="161" cy="443.6631" fill="#84BE84" rx="3" ry="3" style="stroke: #038048; stroke-width: 1.0;"/><text fill="#000000" font-family="sans-serif" font-size="11" lengthAdjust="spacingAndGlyphs" textLength="79" x="170" y="446.3203">getFirstName()</text><ellipse cx="161" cy="456.6182" fill="#84BE84" rx="3" ry="3" style="stroke: #038048; stroke-width: 1.0;"/><text fill="#000000" font-family="sans-serif" font-size="11" lengthAdjust="spacingAndGlyphs" textLength="78" x="170" y="459.2754">setFirstName()</text><text fill="#000000" font-family="sans-serif" font-size="11" lengthAdjust="spacingAndGlyphs" textLength="0" x="173" y="472.2305"/><ellipse cx="161" cy="482.5283" fill="#84BE84" rx="3" ry="3" style="stroke: #038048; stroke-width: 1.0;"/><text fill="#000000" font-family="sans-serif" font-size="11" lengthAdjust="spacingAndGlyphs" textLength="77" x="170" y="485.1855">getLastName()</text><ellipse cx="161" cy="495.4834" fill="#84BE84" rx="3" ry="3" style="stroke: #038048; stroke-width: 1.0;"/><text fill="#000000" font-family="sans-serif" font-size="11" lengthAdjust="spacingAndGlyphs" textLength="76" x="170" y="498.1406">setLastName()</text><text fill="#000000" font-family="sans-serif" font-size="11" lengthAdjust="spacingAndGlyphs" textLength="0" x="173" y="511.0957"/><ellipse cx="161" cy="521.3936" fill="#84BE84" rx="3" ry="3" style="stroke: #038048; stroke-width: 1.0;"/><text fill="#000000" font-family="sans-serif" font-size="11" lengthAdjust="spacingAndGlyphs" textLength="46" x="170" y="524.0508">getCity()</text><ellipse cx="161" cy="534.3486" fill="#84BE84" rx="3" ry="3" style="stroke: #038048; stroke-width: 1.0;"/><text fill="#000000" font-family="sans-serif" font-size="11" lengthAdjust="spacingAndGlyphs" textLength="45" x="170" y="537.0059">setCity()</text><text fill="#000000" font-family="sans-serif" font-size="11" lengthAdjust="spacingAndGlyphs" textLength="0" x="173" y="549.9609"/><ellipse cx="161" cy="560.2588" fill="#84BE84" rx="3" ry="3" style="stroke: #038048; stroke-width: 1.0;"/><text fill="#000000" font-family="sans-serif" font-size="11" lengthAdjust="spacingAndGlyphs" textLength="51" x="170" y="562.916">toString()</text><!--class UserAchilles--><rect fill="#FEFECE" filter="url(#f1u2j5lqu58rz2)" height="268.2363" id="UserAchilles" style="stroke: #A80036; stroke-width: 1.5;" width="105" x="292" y="301"/><ellipse cx="308.8" cy="317" fill="#ADD1B2" rx="11" ry="11" style="stroke: #A80036; stroke-width: 1.0;"/><path d="M311.2731,323.1431 Q310.6921,323.4419 310.0529,323.5913 Q309.4138,323.7407 308.7082,323.7407 Q306.2014,323.7407 304.8815,322.0889 Q303.5617,320.437 303.5617,317.3159 Q303.5617,314.1865 304.8815,312.5347 Q306.2014,310.8828 308.7082,310.8828 Q309.4138,310.8828 310.0612,311.0322 Q310.7087,311.1816 311.2731,311.4805 L311.2731,314.2031 Q310.6423,313.6221 310.0488,313.3523 Q309.4553,313.0825 308.8244,313.0825 Q307.4797,313.0825 306.7949,314.1492 Q306.1101,315.2158 306.1101,317.3159 Q306.1101,319.4077 306.7949,320.4744 Q307.4797,321.541 308.8244,321.541 Q309.4553,321.541 310.0488,321.2712 Q310.6423,321.0015 311.2731,320.4204 Z "/><text fill="#000000" font-family="sans-serif" font-size="12" lengthAdjust="spacingAndGlyphs" textLength="69" x="323.2" y="321.5352">UserAchilles</text><line style="stroke: #A80036; stroke-width: 1.5;" x1="293" x2="396" y1="333" y2="333"/><rect fill="none" height="6" style="stroke: #C82930; stroke-width: 1.0;" width="6" x="300" y="341.9775"/><text fill="#000000" font-family="sans-serif" font-size="11" lengthAdjust="spacingAndGlyphs" textLength="10" x="312" y="347.6348">id</text><rect fill="none" height="6" style="stroke: #C82930; stroke-width: 1.0;" width="6" x="300" y="354.9326"/><text fill="#000000" font-family="sans-serif" font-size="11" lengthAdjust="spacingAndGlyphs" textLength="52" x="312" y="360.5898">firstName</text><rect fill="none" height="6" style="stroke: #C82930; stroke-width: 1.0;" width="6" x="300" y="367.8877"/><text fill="#000000" font-family="sans-serif" font-size="11" lengthAdjust="spacingAndGlyphs" textLength="49" x="312" y="373.5449">lastName</text><rect fill="none" height="6" style="stroke: #C82930; stroke-width: 1.0;" width="6" x="300" y="380.8428"/><text fill="#000000" font-family="sans-serif" font-size="11" lengthAdjust="spacingAndGlyphs" textLength="19" x="312" y="386.5">city</text><line style="stroke: #A80036; stroke-width: 1.5;" x1="293" x2="396" y1="392.8203" y2="392.8203"/><ellipse cx="303" cy="404.7979" fill="#84BE84" rx="3" ry="3" style="stroke: #038048; stroke-width: 1.0;"/><text fill="#000000" font-family="sans-serif" font-size="11" lengthAdjust="spacingAndGlyphs" textLength="35" x="312" y="407.4551">getId()</text><ellipse cx="303" cy="417.7529" fill="#84BE84" rx="3" ry="3" style="stroke: #038048; stroke-width: 1.0;"/><text fill="#000000" font-family="sans-serif" font-size="11" lengthAdjust="spacingAndGlyphs" textLength="34" x="312" y="420.4102">setId()</text><text fill="#000000" font-family="sans-serif" font-size="11" lengthAdjust="spacingAndGlyphs" textLength="0" x="315" y="433.3652"/><ellipse cx="303" cy="443.6631" fill="#84BE84" rx="3" ry="3" style="stroke: #038048; stroke-width: 1.0;"/><text fill="#000000" font-family="sans-serif" font-size="11" lengthAdjust="spacingAndGlyphs" textLength="79" x="312" y="446.3203">getFirstName()</text><ellipse cx="303" cy="456.6182" fill="#84BE84" rx="3" ry="3" style="stroke: #038048; stroke-width: 1.0;"/><text fill="#000000" font-family="sans-serif" font-size="11" lengthAdjust="spacingAndGlyphs" textLength="78" x="312" y="459.2754">setFirstName()</text><text fill="#000000" font-family="sans-serif" font-size="11" lengthAdjust="spacingAndGlyphs" textLength="0" x="315" y="472.2305"/><ellipse cx="303" cy="482.5283" fill="#84BE84" rx="3" ry="3" style="stroke: #038048; stroke-width: 1.0;"/><text fill="#000000" font-family="sans-serif" font-size="11" lengthAdjust="spacingAndGlyphs" textLength="77" x="312" y="485.1855">getLastName()</text><ellipse cx="303" cy="495.4834" fill="#84BE84" rx="3" ry="3" style="stroke: #038048; stroke-width: 1.0;"/><text fill="#000000" font-family="sans-serif" font-size="11" lengthAdjust="spacingAndGlyphs" textLength="76" x="312" y="498.1406">setLastName()</text><text fill="#000000" font-family="sans-serif" font-size="11" lengthAdjust="spacingAndGlyphs" textLength="0" x="315" y="511.0957"/><ellipse cx="303" cy="521.3936" fill="#84BE84" rx="3" ry="3" style="stroke: #038048; stroke-width: 1.0;"/><text fill="#000000" font-family="sans-serif" font-size="11" lengthAdjust="spacingAndGlyphs" textLength="46" x="312" y="524.0508">getCity()</text><ellipse cx="303" cy="534.3486" fill="#84BE84" rx="3" ry="3" style="stroke: #038048; stroke-width: 1.0;"/><text fill="#000000" font-family="sans-serif" font-size="11" lengthAdjust="spacingAndGlyphs" textLength="45" x="312" y="537.0059">setCity()</text><text fill="#000000" font-family="sans-serif" font-size="11" lengthAdjust="spacingAndGlyphs" textLength="0" x="315" y="549.9609"/><ellipse cx="303" cy="560.2588" fill="#84BE84" rx="3" ry="3" style="stroke: #038048; stroke-width: 1.0;"/><text fill="#000000" font-family="sans-serif" font-size="11" lengthAdjust="spacingAndGlyphs" textLength="51" x="312" y="562.916">toString()</text><!--link User to UserDatastax--><path d="M147.4688,201.1641 C137.4197,218.274 127.5871,236.4105 119.5,254 C112.6658,268.8644 106.2687,284.7477 100.395,300.7 " fill="none" id="User-UserDatastax" style="stroke: #A80036; stroke-width: 1.0;"/><polygon fill="none" points="141.6338,197.2848,157.9552,183.7713,153.6232,204.5135,141.6338,197.2848" style="stroke: #A80036; stroke-width: 1.0;"/><text fill="#000000" font-family="sans-serif" font-size="13" lengthAdjust="spacingAndGlyphs" textLength="74" x="120.5" y="267.5684">implements</text><!--link User to UserKundera--><path d="M203.5,244.6477 C203.5,263.1597 203.5,282.2482 203.5,300.8636 " fill="none" id="User-UserKundera" style="stroke: #A80036; stroke-width: 1.0;"/><polygon fill="none" points="196.5001,244.444,203.5,224.444,210.5001,244.4439,196.5001,244.444" style="stroke: #A80036; stroke-width: 1.0;"/><text fill="#000000" font-family="sans-serif" font-size="13" lengthAdjust="spacingAndGlyphs" textLength="74" x="204.5" y="267.5684">implements</text><!--link User to UserAchilles--><path d="M259.6724,201.0996 C269.7091,218.2151 279.5011,236.3702 287.5,254 C294.2379,268.8507 300.5013,284.7255 306.2217,300.6733 " fill="none" id="User-UserAchilles" style="stroke: #A80036; stroke-width: 1.0;"/><polygon fill="none" points="253.5176,204.4482,249.1894,183.7053,265.5084,197.2217,253.5176,204.4482" style="stroke: #A80036; stroke-width: 1.0;"/><text fill="#000000" font-family="sans-serif" font-size="13" lengthAdjust="spacingAndGlyphs" textLength="74" x="294.5" y="267.5684">implements</text><!--
@startuml

interface User {
    {abstract} getId()
    {abstract} setId()

    {abstract} getFirstName()
    {abstract} setFirstName()

    {abstract} getLastName()
    {abstract} setLastName()

    {abstract} getCity()
    {abstract} setCity()

    {abstract} toString()
}

class UserDatastax {
    - id
    - firstName
    - lastName
    - city

    +getId()
    +setId()

    +getFirstName()
    +setFirstName()

    +getLastName()
    +setLastName()

    +getCity()
    +setCity()

    +toString()
}

class UserKundera {
    - id
    - firstName
    - lastName
    - city

    +getId()
    +setId()

    +getFirstName()
    +setFirstName()

    +getLastName()
    +setLastName()

    +getCity()
    +setCity()

    +toString()
}

class UserAchilles {
    - id
    - firstName
    - lastName
    - city

    +getId()
    +setId()

    +getFirstName()
    +setFirstName()

    +getLastName()
    +setLastName()

    +getCity()
    +setCity()

    +toString()
}

User <|- - UserDatastax: implements
User <|- - UserKundera: implements
User <|- - UserAchilles: implements

@enduml

PlantUML version 1.2018.12(Sun Oct 21 11:15:15 WEST 2018)
(GPL source distribution)
Java Runtime: OpenJDK Runtime Environment
JVM: OpenJDK 64-Bit Server VM
Java Version: 11.0.1+13
Operating System: Mac OS X
OS Version: 10.14.2
Default Encoding: US-ASCII
Language: en
Country: GB
--></g></svg>