<?xml version="1.0" encoding="UTF-8" standalone="no"?><svg xmlns="http://www.w3.org/2000/svg" xmlns:xlink="http://www.w3.org/1999/xlink" contentScriptType="application/ecmascript" contentStyleType="text/css" height="515px" preserveAspectRatio="none" style="width:568px;height:515px;" version="1.1" viewBox="0 0 568 515" width="568px" zoomAndPan="magnify"><defs><filter height="300%" id="f6iza4l8gm5tj" width="300%" x="-1" y="-1"><feGaussianBlur result="blurOut" stdDeviation="2.0"/><feColorMatrix in="blurOut" result="blurOut2" type="matrix" values="0 0 0 0 0 0 0 0 0 0 0 0 0 0 0 0 0 0 .4 0"/><feOffset dx="4.0" dy="4.0" in="blurOut2" result="blurOut3"/><feBlend in="SourceGraphic" in2="blurOut3" mode="normal"/></filter></defs><g><!--class Run--><rect fill="#FEFECE" filter="url(#f6iza4l8gm5tj)" height="268.2363" id="Run" style="stroke: #A80036; stroke-width: 1.5;" width="97" x="246" y="8"/><ellipse cx="280.35" cy="24" fill="#A9DCDF" rx="11" ry="11" style="stroke: #A80036; stroke-width: 1.0;"/><path d="M280.4633,19.5981 L279.3095,24.6699 L281.6254,24.6699 Z M278.9691,17.3569 L281.9657,17.3569 L285.3109,29.75 L282.8622,29.75 L282.0985,26.687 L278.8197,26.687 L278.0727,29.75 L275.6239,29.75 Z "/><text fill="#000000" font-family="sans-serif" font-size="12" font-style="italic" lengthAdjust="spacingAndGlyphs" textLength="22" x="298.65" y="28.5352">Run</text><line style="stroke: #A80036; stroke-width: 1.5;" x1="247" x2="342" y1="40" y2="40"/><line style="stroke: #A80036; stroke-width: 1.5;" x1="247" x2="342" y1="48" y2="48"/><ellipse cx="257" cy="59.9775" fill="#84BE84" rx="3" ry="3" style="stroke: #038048; stroke-width: 1.0;"/><text fill="#000000" font-family="sans-serif" font-size="11" lengthAdjust="spacingAndGlyphs" textLength="27" x="266" y="62.6348">run()</text><text fill="#000000" font-family="sans-serif" font-size="11" lengthAdjust="spacingAndGlyphs" textLength="0" x="269" y="75.5898"/><ellipse cx="257" cy="85.8877" fill="#84BE84" rx="3" ry="3" style="stroke: #038048; stroke-width: 1.0;"/><text fill="#000000" font-family="sans-serif" font-size="11" font-style="italic" lengthAdjust="spacingAndGlyphs" textLength="35" x="266" y="88.5449">open()</text><ellipse cx="257" cy="98.8428" fill="#84BE84" rx="3" ry="3" style="stroke: #038048; stroke-width: 1.0;"/><text fill="#000000" font-family="sans-serif" font-size="11" font-style="italic" lengthAdjust="spacingAndGlyphs" textLength="36" x="266" y="101.5">close()</text><ellipse cx="257" cy="111.7979" fill="#84BE84" rx="3" ry="3" style="stroke: #038048; stroke-width: 1.0;"/><text fill="#000000" font-family="sans-serif" font-size="11" font-style="italic" lengthAdjust="spacingAndGlyphs" textLength="36" x="266" y="114.4551">clean()</text><text fill="#000000" font-family="sans-serif" font-size="11" lengthAdjust="spacingAndGlyphs" textLength="0" x="269" y="127.4102"/><ellipse cx="257" cy="137.708" fill="#84BE84" rx="3" ry="3" style="stroke: #038048; stroke-width: 1.0;"/><text fill="#000000" font-family="sans-serif" font-size="11" lengthAdjust="spacingAndGlyphs" textLength="60" x="266" y="140.3652">runWrites()</text><ellipse cx="257" cy="150.6631" fill="#84BE84" rx="3" ry="3" style="stroke: #038048; stroke-width: 1.0;"/><text fill="#000000" font-family="sans-serif" font-size="11" font-style="italic" lengthAdjust="spacingAndGlyphs" textLength="34" x="266" y="153.3203">write()</text><text fill="#000000" font-family="sans-serif" font-size="11" lengthAdjust="spacingAndGlyphs" textLength="0" x="269" y="166.2754"/><ellipse cx="257" cy="176.5732" fill="#84BE84" rx="3" ry="3" style="stroke: #038048; stroke-width: 1.0;"/><text fill="#000000" font-family="sans-serif" font-size="11" lengthAdjust="spacingAndGlyphs" textLength="59" x="266" y="179.2305">runReads()</text><ellipse cx="257" cy="189.5283" fill="#84BE84" rx="3" ry="3" style="stroke: #038048; stroke-width: 1.0;"/><text fill="#000000" font-family="sans-serif" font-size="11" font-style="italic" lengthAdjust="spacingAndGlyphs" textLength="32" x="266" y="192.1855">read()</text><text fill="#000000" font-family="sans-serif" font-size="11" lengthAdjust="spacingAndGlyphs" textLength="0" x="269" y="205.1406"/><ellipse cx="257" cy="215.4385" fill="#84BE84" rx="3" ry="3" style="stroke: #038048; stroke-width: 1.0;"/><text fill="#000000" font-family="sans-serif" font-size="11" lengthAdjust="spacingAndGlyphs" textLength="71" x="266" y="218.0957">runUpdates()</text><ellipse cx="257" cy="228.3936" fill="#84BE84" rx="3" ry="3" style="stroke: #038048; stroke-width: 1.0;"/><text fill="#000000" font-family="sans-serif" font-size="11" font-style="italic" lengthAdjust="spacingAndGlyphs" textLength="45" x="266" y="231.0508">update()</text><text fill="#000000" font-family="sans-serif" font-size="11" lengthAdjust="spacingAndGlyphs" textLength="0" x="269" y="244.0059"/><ellipse cx="257" cy="254.3037" fill="#84BE84" rx="3" ry="3" style="stroke: #038048; stroke-width: 1.0;"/><text fill="#000000" font-family="sans-serif" font-size="11" lengthAdjust="spacingAndGlyphs" textLength="66" x="266" y="256.9609">runDeletes()</text><ellipse cx="257" cy="267.2588" fill="#84BE84" rx="3" ry="3" style="stroke: #038048; stroke-width: 1.0;"/><text fill="#000000" font-family="sans-serif" font-size="11" font-style="italic" lengthAdjust="spacingAndGlyphs" textLength="40" x="266" y="269.916">delete()</text><!--class RunDatastax--><rect fill="#FEFECE" filter="url(#f6iza4l8gm5tj)" height="151.6406" id="RunDatastax" style="stroke: #A80036; stroke-width: 1.5;" width="105" x="6" y="353"/><ellipse cx="21" cy="369" fill="#ADD1B2" rx="11" ry="11" style="stroke: #A80036; stroke-width: 1.0;"/><path d="M23.4731,375.1431 Q22.8921,375.4419 22.2529,375.5913 Q21.6138,375.7407 20.9082,375.7407 Q18.4014,375.7407 17.0815,374.0889 Q15.7617,372.437 15.7617,369.3159 Q15.7617,366.1865 17.0815,364.5347 Q18.4014,362.8828 20.9082,362.8828 Q21.6138,362.8828 22.2612,363.0322 Q22.9087,363.1816 23.4731,363.4805 L23.4731,366.2031 Q22.8423,365.6221 22.2488,365.3523 Q21.6553,365.0825 21.0244,365.0825 Q19.6797,365.0825 18.9949,366.1492 Q18.3101,367.2158 18.3101,369.3159 Q18.3101,371.4077 18.9949,372.4744 Q19.6797,373.541 21.0244,373.541 Q21.6553,373.541 22.2488,373.2712 Q22.8423,373.0015 23.4731,372.4204 Z "/><text fill="#000000" font-family="sans-serif" font-size="12" lengthAdjust="spacingAndGlyphs" textLength="73" x="35" y="373.5352">RunDatastax</text><line style="stroke: #A80036; stroke-width: 1.5;" x1="7" x2="110" y1="385" y2="385"/><line style="stroke: #A80036; stroke-width: 1.5;" x1="7" x2="110" y1="393" y2="393"/><ellipse cx="17" cy="404.9775" fill="#84BE84" rx="3" ry="3" style="stroke: #038048; stroke-width: 1.0;"/><text fill="#000000" font-family="sans-serif" font-size="11" lengthAdjust="spacingAndGlyphs" textLength="35" x="26" y="407.6348">open()</text><ellipse cx="17" cy="417.9326" fill="#84BE84" rx="3" ry="3" style="stroke: #038048; stroke-width: 1.0;"/><text fill="#000000" font-family="sans-serif" font-size="11" lengthAdjust="spacingAndGlyphs" textLength="36" x="26" y="420.5898">close()</text><ellipse cx="17" cy="430.8877" fill="#84BE84" rx="3" ry="3" style="stroke: #038048; stroke-width: 1.0;"/><text fill="#000000" font-family="sans-serif" font-size="11" lengthAdjust="spacingAndGlyphs" textLength="36" x="26" y="433.5449">clean()</text><text fill="#000000" font-family="sans-serif" font-size="11" lengthAdjust="spacingAndGlyphs" textLength="0" x="29" y="446.5"/><ellipse cx="17" cy="456.7979" fill="#84BE84" rx="3" ry="3" style="stroke: #038048; stroke-width: 1.0;"/><text fill="#000000" font-family="sans-serif" font-size="11" lengthAdjust="spacingAndGlyphs" textLength="34" x="26" y="459.4551">write()</text><ellipse cx="17" cy="469.7529" fill="#84BE84" rx="3" ry="3" style="stroke: #038048; stroke-width: 1.0;"/><text fill="#000000" font-family="sans-serif" font-size="11" lengthAdjust="spacingAndGlyphs" textLength="32" x="26" y="472.4102">read()</text><ellipse cx="17" cy="482.708" fill="#84BE84" rx="3" ry="3" style="stroke: #038048; stroke-width: 1.0;"/><text fill="#000000" font-family="sans-serif" font-size="11" lengthAdjust="spacingAndGlyphs" textLength="45" x="26" y="485.3652">update()</text><ellipse cx="17" cy="495.6631" fill="#84BE84" rx="3" ry="3" style="stroke: #038048; stroke-width: 1.0;"/><text fill="#000000" font-family="sans-serif" font-size="11" lengthAdjust="spacingAndGlyphs" textLength="40" x="26" y="498.3203">delete()</text><!--class RunDatastaxNative--><rect fill="#FEFECE" filter="url(#f6iza4l8gm5tj)" height="151.6406" id="RunDatastaxNative" style="stroke: #A80036; stroke-width: 1.5;" width="141" x="146" y="353"/><ellipse cx="161" cy="369" fill="#ADD1B2" rx="11" ry="11" style="stroke: #A80036; stroke-width: 1.0;"/><path d="M163.4731,375.1431 Q162.8921,375.4419 162.2529,375.5913 Q161.6138,375.7407 160.9082,375.7407 Q158.4014,375.7407 157.0815,374.0889 Q155.7617,372.437 155.7617,369.3159 Q155.7617,366.1865 157.0815,364.5347 Q158.4014,362.8828 160.9082,362.8828 Q161.6138,362.8828 162.2612,363.0322 Q162.9087,363.1816 163.4731,363.4805 L163.4731,366.2031 Q162.8423,365.6221 162.2488,365.3523 Q161.6553,365.0825 161.0244,365.0825 Q159.6797,365.0825 158.9949,366.1492 Q158.3101,367.2158 158.3101,369.3159 Q158.3101,371.4077 158.9949,372.4744 Q159.6797,373.541 161.0244,373.541 Q161.6553,373.541 162.2488,373.2712 Q162.8423,373.0015 163.4731,372.4204 Z "/><text fill="#000000" font-family="sans-serif" font-size="12" lengthAdjust="spacingAndGlyphs" textLength="109" x="175" y="373.5352">RunDatastaxNative</text><line style="stroke: #A80036; stroke-width: 1.5;" x1="147" x2="286" y1="385" y2="385"/><line style="stroke: #A80036; stroke-width: 1.5;" x1="147" x2="286" y1="393" y2="393"/><ellipse cx="157" cy="404.9775" fill="#84BE84" rx="3" ry="3" style="stroke: #038048; stroke-width: 1.0;"/><text fill="#000000" font-family="sans-serif" font-size="11" lengthAdjust="spacingAndGlyphs" textLength="35" x="166" y="407.6348">open()</text><ellipse cx="157" cy="417.9326" fill="#84BE84" rx="3" ry="3" style="stroke: #038048; stroke-width: 1.0;"/><text fill="#000000" font-family="sans-serif" font-size="11" lengthAdjust="spacingAndGlyphs" textLength="36" x="166" y="420.5898">close()</text><ellipse cx="157" cy="430.8877" fill="#84BE84" rx="3" ry="3" style="stroke: #038048; stroke-width: 1.0;"/><text fill="#000000" font-family="sans-serif" font-size="11" lengthAdjust="spacingAndGlyphs" textLength="36" x="166" y="433.5449">clean()</text><text fill="#000000" font-family="sans-serif" font-size="11" lengthAdjust="spacingAndGlyphs" textLength="0" x="169" y="446.5"/><ellipse cx="157" cy="456.7979" fill="#84BE84" rx="3" ry="3" style="stroke: #038048; stroke-width: 1.0;"/><text fill="#000000" font-family="sans-serif" font-size="11" lengthAdjust="spacingAndGlyphs" textLength="34" x="166" y="459.4551">write()</text><ellipse cx="157" cy="469.7529" fill="#84BE84" rx="3" ry="3" style="stroke: #038048; stroke-width: 1.0;"/><text fill="#000000" font-family="sans-serif" font-size="11" lengthAdjust="spacingAndGlyphs" textLength="32" x="166" y="472.4102">read()</text><ellipse cx="157" cy="482.708" fill="#84BE84" rx="3" ry="3" style="stroke: #038048; stroke-width: 1.0;"/><text fill="#000000" font-family="sans-serif" font-size="11" lengthAdjust="spacingAndGlyphs" textLength="45" x="166" y="485.3652">update()</text><ellipse cx="157" cy="495.6631" fill="#84BE84" rx="3" ry="3" style="stroke: #038048; stroke-width: 1.0;"/><text fill="#000000" font-family="sans-serif" font-size="11" lengthAdjust="spacingAndGlyphs" textLength="40" x="166" y="498.3203">delete()</text><!--class RunKundera--><rect fill="#FEFECE" filter="url(#f6iza4l8gm5tj)" height="151.6406" id="RunKundera" style="stroke: #A80036; stroke-width: 1.5;" width="103" x="322" y="353"/><ellipse cx="337" cy="369" fill="#ADD1B2" rx="11" ry="11" style="stroke: #A80036; stroke-width: 1.0;"/><path d="M339.4731,375.1431 Q338.8921,375.4419 338.2529,375.5913 Q337.6138,375.7407 336.9082,375.7407 Q334.4014,375.7407 333.0815,374.0889 Q331.7617,372.437 331.7617,369.3159 Q331.7617,366.1865 333.0815,364.5347 Q334.4014,362.8828 336.9082,362.8828 Q337.6138,362.8828 338.2612,363.0322 Q338.9087,363.1816 339.4731,363.4805 L339.4731,366.2031 Q338.8423,365.6221 338.2488,365.3523 Q337.6553,365.0825 337.0244,365.0825 Q335.6797,365.0825 334.9949,366.1492 Q334.3101,367.2158 334.3101,369.3159 Q334.3101,371.4077 334.9949,372.4744 Q335.6797,373.541 337.0244,373.541 Q337.6553,373.541 338.2488,373.2712 Q338.8423,373.0015 339.4731,372.4204 Z "/><text fill="#000000" font-family="sans-serif" font-size="12" lengthAdjust="spacingAndGlyphs" textLength="71" x="351" y="373.5352">RunKundera</text><line style="stroke: #A80036; stroke-width: 1.5;" x1="323" x2="424" y1="385" y2="385"/><line style="stroke: #A80036; stroke-width: 1.5;" x1="323" x2="424" y1="393" y2="393"/><ellipse cx="333" cy="404.9775" fill="#84BE84" rx="3" ry="3" style="stroke: #038048; stroke-width: 1.0;"/><text fill="#000000" font-family="sans-serif" font-size="11" lengthAdjust="spacingAndGlyphs" textLength="35" x="342" y="407.6348">open()</text><ellipse cx="333" cy="417.9326" fill="#84BE84" rx="3" ry="3" style="stroke: #038048; stroke-width: 1.0;"/><text fill="#000000" font-family="sans-serif" font-size="11" lengthAdjust="spacingAndGlyphs" textLength="36" x="342" y="420.5898">close()</text><ellipse cx="333" cy="430.8877" fill="#84BE84" rx="3" ry="3" style="stroke: #038048; stroke-width: 1.0;"/><text fill="#000000" font-family="sans-serif" font-size="11" lengthAdjust="spacingAndGlyphs" textLength="36" x="342" y="433.5449">clean()</text><text fill="#000000" font-family="sans-serif" font-size="11" lengthAdjust="spacingAndGlyphs" textLength="0" x="345" y="446.5"/><ellipse cx="333" cy="456.7979" fill="#84BE84" rx="3" ry="3" style="stroke: #038048; stroke-width: 1.0;"/><text fill="#000000" font-family="sans-serif" font-size="11" lengthAdjust="spacingAndGlyphs" textLength="34" x="342" y="459.4551">write()</text><ellipse cx="333" cy="469.7529" fill="#84BE84" rx="3" ry="3" style="stroke: #038048; stroke-width: 1.0;"/><text fill="#000000" font-family="sans-serif" font-size="11" lengthAdjust="spacingAndGlyphs" textLength="32" x="342" y="472.4102">read()</text><ellipse cx="333" cy="482.708" fill="#84BE84" rx="3" ry="3" style="stroke: #038048; stroke-width: 1.0;"/><text fill="#000000" font-family="sans-serif" font-size="11" lengthAdjust="spacingAndGlyphs" textLength="45" x="342" y="485.3652">update()</text><ellipse cx="333" cy="495.6631" fill="#84BE84" rx="3" ry="3" style="stroke: #038048; stroke-width: 1.0;"/><text fill="#000000" font-family="sans-serif" font-size="11" lengthAdjust="spacingAndGlyphs" textLength="40" x="342" y="498.3203">delete()</text><!--class RunAchilles--><rect fill="#FEFECE" filter="url(#f6iza4l8gm5tj)" height="151.6406" id="RunAchilles" style="stroke: #A80036; stroke-width: 1.5;" width="97" x="460" y="353"/><ellipse cx="475" cy="369" fill="#ADD1B2" rx="11" ry="11" style="stroke: #A80036; stroke-width: 1.0;"/><path d="M477.4731,375.1431 Q476.8921,375.4419 476.2529,375.5913 Q475.6138,375.7407 474.9082,375.7407 Q472.4014,375.7407 471.0815,374.0889 Q469.7617,372.437 469.7617,369.3159 Q469.7617,366.1865 471.0815,364.5347 Q472.4014,362.8828 474.9082,362.8828 Q475.6138,362.8828 476.2612,363.0322 Q476.9087,363.1816 477.4731,363.4805 L477.4731,366.2031 Q476.8423,365.6221 476.2488,365.3523 Q475.6553,365.0825 475.0244,365.0825 Q473.6797,365.0825 472.9949,366.1492 Q472.3101,367.2158 472.3101,369.3159 Q472.3101,371.4077 472.9949,372.4744 Q473.6797,373.541 475.0244,373.541 Q475.6553,373.541 476.2488,373.2712 Q476.8423,373.0015 477.4731,372.4204 Z "/><text fill="#000000" font-family="sans-serif" font-size="12" lengthAdjust="spacingAndGlyphs" textLength="65" x="489" y="373.5352">RunAchilles</text><line style="stroke: #A80036; stroke-width: 1.5;" x1="461" x2="556" y1="385" y2="385"/><line style="stroke: #A80036; stroke-width: 1.5;" x1="461" x2="556" y1="393" y2="393"/><ellipse cx="471" cy="404.9775" fill="#84BE84" rx="3" ry="3" style="stroke: #038048; stroke-width: 1.0;"/><text fill="#000000" font-family="sans-serif" font-size="11" lengthAdjust="spacingAndGlyphs" textLength="35" x="480" y="407.6348">open()</text><ellipse cx="471" cy="417.9326" fill="#84BE84" rx="3" ry="3" style="stroke: #038048; stroke-width: 1.0;"/><text fill="#000000" font-family="sans-serif" font-size="11" lengthAdjust="spacingAndGlyphs" textLength="36" x="480" y="420.5898">close()</text><ellipse cx="471" cy="430.8877" fill="#84BE84" rx="3" ry="3" style="stroke: #038048; stroke-width: 1.0;"/><text fill="#000000" font-family="sans-serif" font-size="11" lengthAdjust="spacingAndGlyphs" textLength="36" x="480" y="433.5449">clean()</text><text fill="#000000" font-family="sans-serif" font-size="11" lengthAdjust="spacingAndGlyphs" textLength="0" x="483" y="446.5"/><ellipse cx="471" cy="456.7979" fill="#84BE84" rx="3" ry="3" style="stroke: #038048; stroke-width: 1.0;"/><text fill="#000000" font-family="sans-serif" font-size="11" lengthAdjust="spacingAndGlyphs" textLength="34" x="480" y="459.4551">write()</text><ellipse cx="471" cy="469.7529" fill="#84BE84" rx="3" ry="3" style="stroke: #038048; stroke-width: 1.0;"/><text fill="#000000" font-family="sans-serif" font-size="11" lengthAdjust="spacingAndGlyphs" textLength="32" x="480" y="472.4102">read()</text><ellipse cx="471" cy="482.708" fill="#84BE84" rx="3" ry="3" style="stroke: #038048; stroke-width: 1.0;"/><text fill="#000000" font-family="sans-serif" font-size="11" lengthAdjust="spacingAndGlyphs" textLength="45" x="480" y="485.3652">update()</text><ellipse cx="471" cy="495.6631" fill="#84BE84" rx="3" ry="3" style="stroke: #038048; stroke-width: 1.0;"/><text fill="#000000" font-family="sans-serif" font-size="11" lengthAdjust="spacingAndGlyphs" textLength="40" x="480" y="498.3203">delete()</text><!--link Run to RunDatastax--><path d="M232.9685,216.8286 C195.1504,262.8192 147.2065,321.1239 111.1515,364.9704 " fill="none" id="Run-RunDatastax" style="stroke: #A80036; stroke-width: 1.0;"/><polygon fill="none" points="227.7772,212.1205,245.8868,201.1186,238.5907,221.0125,227.7772,212.1205" style="stroke: #A80036; stroke-width: 1.0;"/><text fill="#000000" font-family="sans-serif" font-size="13" lengthAdjust="spacingAndGlyphs" textLength="50" x="156.5" y="319.5684">extends</text><!--link Run to RunDatastaxNative--><path d="M252.737,295.6665 C247.3586,315.4563 242.0506,334.9869 237.225,352.7428 " fill="none" id="Run-RunDatastaxNative" style="stroke: #A80036; stroke-width: 1.0;"/><polygon fill="none" points="246.0118,293.7207,258.0121,276.2567,259.5218,297.3925,246.0118,293.7207" style="stroke: #A80036; stroke-width: 1.0;"/><text fill="#000000" font-family="sans-serif" font-size="13" lengthAdjust="spacingAndGlyphs" textLength="50" x="249.5" y="319.5684">extends</text><!--link Run to RunKundera--><path d="M336.7984,295.6665 C342.2458,315.4563 347.6218,334.9869 352.5093,352.7428 " fill="none" id="Run-RunKundera" style="stroke: #A80036; stroke-width: 1.0;"/><polygon fill="none" points="330.0146,297.3973,331.4557,276.2567,343.5125,293.6817,330.0146,297.3973" style="stroke: #A80036; stroke-width: 1.0;"/><text fill="#000000" font-family="sans-serif" font-size="13" lengthAdjust="spacingAndGlyphs" textLength="50" x="343.5" y="319.5684">extends</text><!--link Run to RunAchilles--><path d="M355.1276,223.3089 C388.2457,267.7244 428.7125,321.9952 459.7623,363.6369 " fill="none" id="Run-RunAchilles" style="stroke: #A80036; stroke-width: 1.0;"/><polygon fill="none" points="349.4035,227.3426,343.0599,207.1247,360.6269,218.9739,349.4035,227.3426" style="stroke: #A80036; stroke-width: 1.0;"/><text fill="#000000" font-family="sans-serif" font-size="13" lengthAdjust="spacingAndGlyphs" textLength="50" x="427.5" y="319.5684">extends</text><!--
@startuml

abstract Run {
    +run()
    
    {abstract} +open()
    {abstract} +close()
    {abstract} +clean()

    +runWrites()
    {abstract} +write()

    +runReads()
    {abstract} +read()

    +runUpdates()
    {abstract} +update()

    +runDeletes()
    {abstract} +delete()
}

class RunDatastax {
    +open()
    +close()
    +clean()

    +write()
    +read()
    +update()
    +delete()
}

class RunDatastaxNative {
    +open()
    +close()
    +clean()

    +write()
    +read()
    +update()
    +delete()
}

class RunKundera {
    +open()
    +close()
    +clean()

    +write()
    +read()
    +update()
    +delete()
}

class RunAchilles {
    +open()
    +close()
    +clean()

    +write()
    +read()
    +update()
    +delete()
}

Run <|- - RunDatastax: extends
Run <|- - RunDatastaxNative: extends
Run <|- - RunKundera: extends
Run <|- - RunAchilles: extends

@enduml

PlantUML version 1.2018.12(Sun Oct 21 11:15:15 WEST 2018)
(GPL source distribution)
Java Runtime: OpenJDK Runtime Environment
JVM: OpenJDK 64-Bit Server VM
Java Version: 11.0.1+13
Operating System: Mac OS X
OS Version: 10.14.2
Default Encoding: US-ASCII
Language: en
Country: GB
--></g></svg>