<?xml version="1.0" encoding="UTF-8" standalone="no"?><svg xmlns="http://www.w3.org/2000/svg" xmlns:xlink="http://www.w3.org/1999/xlink" contentScriptType="application/ecmascript" contentStyleType="text/css" height="393px" preserveAspectRatio="none" style="width:458px;height:393px;" version="1.1" viewBox="0 0 458 393" width="458px" zoomAndPan="magnify"><defs><filter height="300%" id="f1f1ctwak7bcex" width="300%" x="-1" y="-1"><feGaussianBlur result="blurOut" stdDeviation="2.0"/><feColorMatrix in="blurOut" result="blurOut2" type="matrix" values="0 0 0 0 0 0 0 0 0 0 0 0 0 0 0 0 0 0 .4 0"/><feOffset dx="4.0" dy="4.0" in="blurOut2" result="blurOut3"/><feBlend in="SourceGraphic" in2="blurOut3" mode="normal"/></filter></defs><g><!--cluster Kubernetes--><polygon fill="#FFFFFF" filter="url(#f1f1ctwak7bcex)" points="178,34,188,24,436,24,436,371,426,381,178,381,178,34" style="stroke: #000000; stroke-width: 1.5;"/><line style="stroke: #000000; stroke-width: 1.5;" x1="426" x2="435" y1="34" y2="25"/><line style="stroke: #000000; stroke-width: 1.5;" x1="178" x2="426" y1="34" y2="34"/><line style="stroke: #000000; stroke-width: 1.5;" x1="426" x2="426" y1="34" y2="381"/><text fill="#000000" font-family="sans-serif" font-size="14" font-weight="bold" lengthAdjust="spacingAndGlyphs" textLength="81" x="262.5" y="50.5352">Kubernetes</text><!--cluster Cloud--><path d="M37.5525,38.803 C41.227,33.63 44.9856,32.2583 49.4036,37.9954 C51.7455,31.4263 58.1427,28.2104 63.4698,34.8056 C67.3066,28.7909 71.1649,28.1853 75.9123,33.8341 C77.1044,28.0402 82.1507,26.1574 86.6164,30.3118 C92.1331,25.0877 96.5994,26.3516 98.8012,33.5606 C103.6819,27.6413 107.5806,27.553 111.4687,34.5352 C117.2848,29.9758 121.5864,30.144 124.1453,37.8905 C133.0709,30.8124 140.293,33.9495 142,45 C142.7601,44.8158 143.0408,45.118 143.0273,45.859 C150.1321,48.5161 152.559,54.328 145.7949,59.7486 C151.9668,62.6426 151.7951,66.4207 147.6162,70.9915 C153.8936,75.3923 154.2122,79.3124 147.8042,83.898 C154.2717,86.5956 154.35,91.5498 150.0401,96.2053 C156.1776,99.2182 156.8624,104.5955 151.8612,109.1727 C156.9347,113.6986 157.174,118.9268 150.7547,122.4985 C157.7589,127.8035 156.4733,132.5032 149.288,136.3003 C154.4536,141.5517 153.398,147.2896 146.0021,149.3869 C150.7684,153.9973 150.5675,157.7379 144.631,161.095 C151.7194,172.208 146.8077,178.5133 135,180 C136.0486,180.0366 136.4257,180.5936 135.9321,181.5548 C132.6212,187.1715 127.3279,186.5857 124.5624,181.0011 C121.6036,186.6842 116.1221,187.3238 111.89,182.5433 C108.7359,188.5935 103.6562,188.9131 100.2045,182.83 C95.6314,188.8362 90.3578,188.9028 86.0635,182.512 C82.441,187.8692 77.0646,187.3234 73.794,182.1038 C69.8759,187.8516 66.0083,186.4417 62.422,181.7425 C58.4621,187.5608 53.1642,186.5973 50,180.8853 C40.8873,187.0895 32.5948,183.3274 30,173 C30.9981,172.6053 31.5333,173.0074 31.6558,174.0259 C24.8796,170.1127 24.5958,165.4328 31.2953,161.1425 C25.2117,158.9952 25.0488,153.3715 29.2404,149.4226 C22.3551,146.2172 22.2155,139.6313 28.8367,136.019 C22.7026,132.1533 21.8671,126.5498 28.8048,122.6529 C23.3895,118.9129 22.946,113.2992 28.7744,109.5332 C23.3214,106.361 23.7323,100.6388 28.7252,97.4241 C23.5745,93.8385 23.0526,87.4583 29.7041,84.787 C23.1535,81.1985 21.9603,75.0035 28.9709,70.7087 C24.6316,66.4627 24.6611,62.9536 29.9932,59.5975 C21.4681,50.816 26.1392,40.4922 37,38 C37.617,37.9715 37.6918,38.3111 37.5525,38.803 " fill="#FFFFFF" style="stroke: #000000; stroke-width: 1.5;"/><text fill="#000000" font-family="sans-serif" font-size="14" font-weight="bold" lengthAdjust="spacingAndGlyphs" textLength="42" x="65" y="56.5352">Cloud</text><!--entity jenkins--><rect fill="#FEFECE" filter="url(#f1f1ctwak7bcex)" height="36.4883" style="stroke: #A80036; stroke-width: 1.5;" width="69" x="336.5" y="329"/><rect fill="#FEFECE" height="5" style="stroke: #A80036; stroke-width: 1.5;" width="10" x="331.5" y="334"/><rect fill="#FEFECE" height="5" style="stroke: #A80036; stroke-width: 1.5;" width="10" x="331.5" y="355.4883"/><text fill="#000000" font-family="sans-serif" font-size="14" lengthAdjust="spacingAndGlyphs" textLength="49" x="346.5" y="352.5352">Jenkins</text><!--entity traefik--><rect fill="#FEFECE" filter="url(#f1f1ctwak7bcex)" height="36.4883" style="stroke: #A80036; stroke-width: 1.5;" width="68" x="194" y="243"/><rect fill="#FEFECE" height="5" style="stroke: #A80036; stroke-width: 1.5;" width="10" x="189" y="248"/><rect fill="#FEFECE" height="5" style="stroke: #A80036; stroke-width: 1.5;" width="10" x="189" y="269.4883"/><text fill="#000000" font-family="sans-serif" font-size="14" lengthAdjust="spacingAndGlyphs" textLength="48" x="204" y="266.5352">Traefik</text><!--entity dashboard--><rect fill="#FEFECE" filter="url(#f1f1ctwak7bcex)" height="52.9766" style="stroke: #A80036; stroke-width: 1.5;" width="98" x="322" y="240.5"/><rect fill="#FEFECE" height="5" style="stroke: #A80036; stroke-width: 1.5;" width="10" x="317" y="245.5"/><rect fill="#FEFECE" height="5" style="stroke: #A80036; stroke-width: 1.5;" width="10" x="317" y="283.4766"/><text fill="#000000" font-family="sans-serif" font-size="14" lengthAdjust="spacingAndGlyphs" textLength="78" x="332" y="264.0352">Kubernetes</text><text fill="#000000" font-family="sans-serif" font-size="14" lengthAdjust="spacingAndGlyphs" textLength="75" x="332" y="280.5234">Dashboard</text><!--entity applicationP--><rect fill="#FEFECE" filter="url(#f1f1ctwak7bcex)" height="52.9766" style="stroke: #A80036; stroke-width: 1.5;" width="98" x="322" y="152.5"/><rect fill="#FEFECE" height="5" style="stroke: #A80036; stroke-width: 1.5;" width="10" x="317" y="157.5"/><rect fill="#FEFECE" height="5" style="stroke: #A80036; stroke-width: 1.5;" width="10" x="317" y="195.4766"/><text fill="#000000" font-family="sans-serif" font-size="14" lengthAdjust="spacingAndGlyphs" textLength="78" x="332" y="176.0352">Application</text><text fill="#000000" font-family="sans-serif" font-size="14" lengthAdjust="spacingAndGlyphs" textLength="75" x="332" y="192.5234">Production</text><!--entity applicationS--><rect fill="#FEFECE" filter="url(#f1f1ctwak7bcex)" height="52.9766" style="stroke: #A80036; stroke-width: 1.5;" width="98" x="322" y="64.5"/><rect fill="#FEFECE" height="5" style="stroke: #A80036; stroke-width: 1.5;" width="10" x="317" y="69.5"/><rect fill="#FEFECE" height="5" style="stroke: #A80036; stroke-width: 1.5;" width="10" x="317" y="107.4766"/><text fill="#000000" font-family="sans-serif" font-size="14" lengthAdjust="spacingAndGlyphs" textLength="78" x="332" y="88.0352">Application</text><text fill="#000000" font-family="sans-serif" font-size="14" lengthAdjust="spacingAndGlyphs" textLength="52" x="332" y="104.5234">Staging</text><!--entity git--><rect fill="#FEFECE" filter="url(#f1f1ctwak7bcex)" height="36.4883" style="stroke: #A80036; stroke-width: 1.5;" width="67" x="52.5" y="65"/><rect fill="#FEFECE" height="5" style="stroke: #A80036; stroke-width: 1.5;" width="10" x="47.5" y="70"/><rect fill="#FEFECE" height="5" style="stroke: #A80036; stroke-width: 1.5;" width="10" x="47.5" y="91.4883"/><text fill="#000000" font-family="sans-serif" font-size="14" lengthAdjust="spacingAndGlyphs" textLength="47" x="62.5" y="88.5352">GitHub</text><!--entity registry--><rect fill="#FEFECE" filter="url(#f1f1ctwak7bcex)" height="36.4883" style="stroke: #A80036; stroke-width: 1.5;" width="96" x="38" y="136"/><rect fill="#FEFECE" height="5" style="stroke: #A80036; stroke-width: 1.5;" width="10" x="33" y="141"/><rect fill="#FEFECE" height="5" style="stroke: #A80036; stroke-width: 1.5;" width="10" x="33" y="162.4883"/><text fill="#000000" font-family="sans-serif" font-size="14" lengthAdjust="spacingAndGlyphs" textLength="76" x="48" y="159.5352">DockerHub</text><!--entity developer--><ellipse cx="86" cy="229.5" fill="#FEFECE" filter="url(#f1f1ctwak7bcex)" rx="8" ry="8" style="stroke: #A80036; stroke-width: 2.0;"/><path d="M86,237.5 L86,264.5 M73,245.5 L99,245.5 M86,264.5 L73,279.5 M86,264.5 L99,279.5 " fill="none" filter="url(#f1f1ctwak7bcex)" style="stroke: #A80036; stroke-width: 2.0;"/><text fill="#000000" font-family="sans-serif" font-size="14" lengthAdjust="spacingAndGlyphs" textLength="69" x="51.5" y="300.0352">Developer</text><!--link traefik to jenkins--><path d="M258.56,279.03 C281.21,292.85 312.5,311.93 336.16,326.36 " fill="none" id="traefik-&gt;jenkins" style="stroke: #A80036; stroke-width: 1.0;"/><polygon fill="#A80036" points="340.48,329,334.872,320.9037,336.209,326.4003,330.7124,327.7373,340.48,329" style="stroke: #A80036; stroke-width: 1.0;"/><!--link traefik to dashboard--><path d="M262.06,262.41 C278.35,263.1 298.41,263.95 316.79,264.74 " fill="none" id="traefik-&gt;dashboard" style="stroke: #A80036; stroke-width: 1.0;"/><polygon fill="#A80036" points="321.92,264.95,313.0995,260.5683,316.9246,264.7359,312.757,268.561,321.92,264.95" style="stroke: #A80036; stroke-width: 1.0;"/><!--link traefik to applicationP--><path d="M260.29,242.8 C277.79,232.62 300.02,219.7 319.88,208.15 " fill="none" id="traefik-&gt;applicationP" style="stroke: #A80036; stroke-width: 1.0;"/><polygon fill="#A80036" points="324.34,205.55,314.5485,206.6116,320.0165,208.0614,318.5667,213.5293,324.34,205.55" style="stroke: #A80036; stroke-width: 1.0;"/><!--link traefik to applicationS--><path d="M240.91,242.63 C257.68,217.32 289.82,170.78 322,135 C326.13,130.4 330.69,125.76 335.3,121.31 " fill="none" id="traefik-&gt;applicationS" style="stroke: #A80036; stroke-width: 1.0;"/><polygon fill="#A80036" points="339.18,117.61,329.898,120.903,335.5529,121.0515,335.4044,126.7064,339.18,117.61" style="stroke: #A80036; stroke-width: 1.0;"/><!--link developer to traefik--><path d="M120.53,261 C141.05,261 167.37,261 188.71,261 " fill="none" id="developer-&gt;traefik" style="stroke: #A80036; stroke-width: 1.0;"/><polygon fill="#A80036" points="193.74,261,184.74,257,188.74,261,184.74,265,193.74,261" style="stroke: #A80036; stroke-width: 1.0;"/><!--
@startuml
left to right direction

node "Kubernetes" {
    component "Jenkins" as jenkins
    component "Traefik" as traefik
    component "Kubernetes\nDashboard" as dashboard
    component "Application\nProduction" as applicationP
    component "Application\nStaging" as applicationS
    
    [traefik] -down-> [jenkins]
    [traefik] -down-> [dashboard]
    [traefik] -down-> [applicationP]
    [traefik] -down-> [applicationS]
}

actor "Developer" as developer
[developer] -down-> [traefik]

cloud "Cloud" {
    component "GitHub" as git
    component "DockerHub" as registry
}

@enduml

PlantUML version 1.2019.09(Mon Aug 26 17:19:51 WEST 2019)
(GPL source distribution)
Java Runtime: Java(TM) SE Runtime Environment
JVM: Java HotSpot(TM) 64-Bit Server VM
Java Version: 13.0.1+9
Operating System: Mac OS X
OS Version: 10.15.3
Default Encoding: UTF-8
Language: en
Country: PT
--></g></svg>