<?xml version="1.0" encoding="UTF-8" standalone="no"?><svg xmlns="http://www.w3.org/2000/svg" xmlns:xlink="http://www.w3.org/1999/xlink" contentScriptType="application/ecmascript" contentStyleType="text/css" height="893px" preserveAspectRatio="none" style="width:944px;height:893px;" version="1.1" viewBox="0 0 944 893" width="944px" zoomAndPan="magnify"><defs><filter height="300%" id="f1gvdmyfnuncp" width="300%" x="-1" y="-1"><feGaussianBlur result="blurOut" stdDeviation="2.0"/><feColorMatrix in="blurOut" result="blurOut2" type="matrix" values="0 0 0 0 0 0 0 0 0 0 0 0 0 0 0 0 0 0 .4 0"/><feOffset dx="4.0" dy="4.0" in="blurOut2" result="blurOut3"/><feBlend in="SourceGraphic" in2="blurOut3" mode="normal"/></filter></defs><g><line style="stroke: #A80036; stroke-width: 1.0; stroke-dasharray: 5.0,5.0;" x1="45" x2="45" y1="86.4883" y2="805.6309"/><line style="stroke: #A80036; stroke-width: 1.0; stroke-dasharray: 5.0,5.0;" x1="133" x2="133" y1="86.4883" y2="805.6309"/><line style="stroke: #A80036; stroke-width: 1.0; stroke-dasharray: 5.0,5.0;" x1="251" x2="251" y1="86.4883" y2="805.6309"/><line style="stroke: #A80036; stroke-width: 1.0; stroke-dasharray: 5.0,5.0;" x1="394.5" x2="394.5" y1="86.4883" y2="805.6309"/><line style="stroke: #A80036; stroke-width: 1.0; stroke-dasharray: 5.0,5.0;" x1="477.5" x2="477.5" y1="86.4883" y2="805.6309"/><line style="stroke: #A80036; stroke-width: 1.0; stroke-dasharray: 5.0,5.0;" x1="677" x2="677" y1="86.4883" y2="805.6309"/><line style="stroke: #A80036; stroke-width: 1.0; stroke-dasharray: 5.0,5.0;" x1="768" x2="768" y1="86.4883" y2="805.6309"/><line style="stroke: #A80036; stroke-width: 1.0; stroke-dasharray: 5.0,5.0;" x1="879" x2="879" y1="86.4883" y2="805.6309"/><text fill="#000000" font-family="sans-serif" font-size="14" lengthAdjust="spacingAndGlyphs" textLength="69" x="8" y="83.5352">Developer</text><ellipse cx="45.5" cy="13" fill="#FEFECE" filter="url(#f1gvdmyfnuncp)" rx="8" ry="8" style="stroke: #A80036; stroke-width: 2.0;"/><path d="M45.5,21 L45.5,48 M32.5,29 L58.5,29 M45.5,48 L32.5,63 M45.5,48 L58.5,63 " fill="none" filter="url(#f1gvdmyfnuncp)" style="stroke: #A80036; stroke-width: 2.0;"/><text fill="#000000" font-family="sans-serif" font-size="14" lengthAdjust="spacingAndGlyphs" textLength="69" x="8" y="818.166">Developer</text><ellipse cx="45.5" cy="831.1191" fill="#FEFECE" filter="url(#f1gvdmyfnuncp)" rx="8" ry="8" style="stroke: #A80036; stroke-width: 2.0;"/><path d="M45.5,839.1191 L45.5,866.1191 M32.5,847.1191 L58.5,847.1191 M45.5,866.1191 L32.5,881.1191 M45.5,866.1191 L58.5,881.1191 " fill="none" filter="url(#f1gvdmyfnuncp)" style="stroke: #A80036; stroke-width: 2.0;"/><rect fill="#FEFECE" filter="url(#f1gvdmyfnuncp)" height="30.4883" style="stroke: #A80036; stroke-width: 1.5;" width="61" x="101" y="51"/><text fill="#000000" font-family="sans-serif" font-size="14" lengthAdjust="spacingAndGlyphs" textLength="47" x="108" y="71.5352">GitHub</text><rect fill="#FEFECE" filter="url(#f1gvdmyfnuncp)" height="30.4883" style="stroke: #A80036; stroke-width: 1.5;" width="61" x="101" y="804.6309"/><text fill="#000000" font-family="sans-serif" font-size="14" lengthAdjust="spacingAndGlyphs" textLength="47" x="108" y="825.166">GitHub</text><rect fill="#FEFECE" filter="url(#f1gvdmyfnuncp)" height="30.4883" style="stroke: #A80036; stroke-width: 1.5;" width="63" x="218" y="51"/><text fill="#000000" font-family="sans-serif" font-size="14" lengthAdjust="spacingAndGlyphs" textLength="49" x="225" y="71.5352">Jenkins</text><rect fill="#FEFECE" filter="url(#f1gvdmyfnuncp)" height="30.4883" style="stroke: #A80036; stroke-width: 1.5;" width="63" x="218" y="804.6309"/><text fill="#000000" font-family="sans-serif" font-size="14" lengthAdjust="spacingAndGlyphs" textLength="49" x="225" y="825.166">Jenkins</text><rect fill="#FEFECE" filter="url(#f1gvdmyfnuncp)" height="30.4883" style="stroke: #A80036; stroke-width: 1.5;" width="90" x="347.5" y="51"/><text fill="#000000" font-family="sans-serif" font-size="14" lengthAdjust="spacingAndGlyphs" textLength="76" x="354.5" y="71.5352">DockerHub</text><rect fill="#FEFECE" filter="url(#f1gvdmyfnuncp)" height="30.4883" style="stroke: #A80036; stroke-width: 1.5;" width="90" x="347.5" y="804.6309"/><text fill="#000000" font-family="sans-serif" font-size="14" lengthAdjust="spacingAndGlyphs" textLength="76" x="354.5" y="825.166">DockerHub</text><rect fill="#FEFECE" filter="url(#f1gvdmyfnuncp)" height="30.4883" style="stroke: #A80036; stroke-width: 1.5;" width="49" x="451.5" y="51"/><text fill="#000000" font-family="sans-serif" font-size="14" lengthAdjust="spacingAndGlyphs" textLength="35" x="458.5" y="71.5352">Tiller</text><rect fill="#FEFECE" filter="url(#f1gvdmyfnuncp)" height="30.4883" style="stroke: #A80036; stroke-width: 1.5;" width="49" x="451.5" y="804.6309"/><text fill="#000000" font-family="sans-serif" font-size="14" lengthAdjust="spacingAndGlyphs" textLength="35" x="458.5" y="825.166">Tiller</text><rect fill="#FEFECE" filter="url(#f1gvdmyfnuncp)" height="30.4883" style="stroke: #A80036; stroke-width: 1.5;" width="92" x="629" y="51"/><text fill="#000000" font-family="sans-serif" font-size="14" lengthAdjust="spacingAndGlyphs" textLength="78" x="636" y="71.5352">Kubernetes</text><rect fill="#FEFECE" filter="url(#f1gvdmyfnuncp)" height="30.4883" style="stroke: #A80036; stroke-width: 1.5;" width="92" x="629" y="804.6309"/><text fill="#000000" font-family="sans-serif" font-size="14" lengthAdjust="spacingAndGlyphs" textLength="78" x="636" y="825.166">Kubernetes</text><rect fill="#FEFECE" filter="url(#f1gvdmyfnuncp)" height="30.4883" style="stroke: #A80036; stroke-width: 1.5;" width="62" x="735" y="51"/><text fill="#000000" font-family="sans-serif" font-size="14" lengthAdjust="spacingAndGlyphs" textLength="48" x="742" y="71.5352">Traefik</text><rect fill="#FEFECE" filter="url(#f1gvdmyfnuncp)" height="30.4883" style="stroke: #A80036; stroke-width: 1.5;" width="62" x="735" y="804.6309"/><text fill="#000000" font-family="sans-serif" font-size="14" lengthAdjust="spacingAndGlyphs" textLength="48" x="742" y="825.166">Traefik</text><rect fill="#FEFECE" filter="url(#f1gvdmyfnuncp)" height="30.4883" style="stroke: #A80036; stroke-width: 1.5;" width="92" x="831" y="51"/><text fill="#000000" font-family="sans-serif" font-size="14" lengthAdjust="spacingAndGlyphs" textLength="78" x="838" y="71.5352">Application</text><rect fill="#FEFECE" filter="url(#f1gvdmyfnuncp)" height="30.4883" style="stroke: #A80036; stroke-width: 1.5;" width="92" x="831" y="804.6309"/><text fill="#000000" font-family="sans-serif" font-size="14" lengthAdjust="spacingAndGlyphs" textLength="78" x="838" y="825.166">Application</text><rect fill="#EEEEEE" filter="url(#f1gvdmyfnuncp)" height="3" style="stroke: #EEEEEE; stroke-width: 1.0;" width="929" x="3" y="117.1436"/><line style="stroke: #000000; stroke-width: 1.0;" x1="3" x2="932" y1="117.1436" y2="117.1436"/><line style="stroke: #000000; stroke-width: 1.0;" x1="3" x2="932" y1="120.1436" y2="120.1436"/><rect fill="#EEEEEE" filter="url(#f1gvdmyfnuncp)" height="23.3105" style="stroke: #000000; stroke-width: 2.0;" width="214" x="360.5" y="106.4883"/><text fill="#000000" font-family="sans-serif" font-size="13" font-weight="bold" lengthAdjust="spacingAndGlyphs" textLength="196" x="366.5" y="123.0566">Build and Deploy Application</text><polygon fill="#A80036" points="121.5,157.1094,131.5,161.1094,121.5,165.1094,125.5,161.1094" style="stroke: #A80036; stroke-width: 1.0;"/><line style="stroke: #A80036; stroke-width: 1.0;" x1="45.5" x2="127.5" y1="161.1094" y2="161.1094"/><text fill="#000000" font-family="sans-serif" font-size="13" lengthAdjust="spacingAndGlyphs" textLength="64" x="52.5" y="156.3672">Push code</text><polygon fill="#A80036" points="56.5,186.4199,46.5,190.4199,56.5,194.4199,52.5,190.4199" style="stroke: #A80036; stroke-width: 1.0;"/><line style="stroke: #A80036; stroke-width: 1.0;" x1="50.5" x2="132.5" y1="190.4199" y2="190.4199"/><text fill="#000000" font-family="sans-serif" font-size="13" lengthAdjust="spacingAndGlyphs" textLength="18" x="62.5" y="185.6777">OK</text><polygon fill="#A80036" points="239.5,215.7305,249.5,219.7305,239.5,223.7305,243.5,219.7305" style="stroke: #A80036; stroke-width: 1.0;"/><line style="stroke: #A80036; stroke-width: 1.0;" x1="133.5" x2="245.5" y1="219.7305" y2="219.7305"/><text fill="#000000" font-family="sans-serif" font-size="13" lengthAdjust="spacingAndGlyphs" textLength="39" x="140.5" y="214.9883">Notify</text><line style="stroke: #A80036; stroke-width: 1.0;" x1="251.5" x2="293.5" y1="249.041" y2="249.041"/><line style="stroke: #A80036; stroke-width: 1.0;" x1="293.5" x2="293.5" y1="249.041" y2="262.041"/><line style="stroke: #A80036; stroke-width: 1.0;" x1="252.5" x2="293.5" y1="262.041" y2="262.041"/><polygon fill="#A80036" points="262.5,258.041,252.5,262.041,262.5,266.041,258.5,262.041" style="stroke: #A80036; stroke-width: 1.0;"/><text fill="#000000" font-family="sans-serif" font-size="13" lengthAdjust="spacingAndGlyphs" textLength="48" x="258.5" y="244.2988">Run job</text><polygon fill="#A80036" points="144.5,287.3516,134.5,291.3516,144.5,295.3516,140.5,291.3516" style="stroke: #A80036; stroke-width: 1.0;"/><line style="stroke: #A80036; stroke-width: 1.0;" x1="138.5" x2="250.5" y1="291.3516" y2="291.3516"/><text fill="#000000" font-family="sans-serif" font-size="13" lengthAdjust="spacingAndGlyphs" textLength="94" x="150.5" y="286.6094">Checkout code</text><polygon fill="#A80036" points="239.5,316.6621,249.5,320.6621,239.5,324.6621,243.5,320.6621" style="stroke: #A80036; stroke-width: 1.0;"/><line style="stroke: #A80036; stroke-width: 1.0;" x1="133.5" x2="245.5" y1="320.6621" y2="320.6621"/><text fill="#000000" font-family="sans-serif" font-size="13" lengthAdjust="spacingAndGlyphs" textLength="32" x="140.5" y="315.9199">Code</text><line style="stroke: #A80036; stroke-width: 1.0;" x1="251.5" x2="293.5" y1="349.9727" y2="349.9727"/><line style="stroke: #A80036; stroke-width: 1.0;" x1="293.5" x2="293.5" y1="349.9727" y2="362.9727"/><line style="stroke: #A80036; stroke-width: 1.0;" x1="252.5" x2="293.5" y1="362.9727" y2="362.9727"/><polygon fill="#A80036" points="262.5,358.9727,252.5,362.9727,262.5,366.9727,258.5,362.9727" style="stroke: #A80036; stroke-width: 1.0;"/><text fill="#000000" font-family="sans-serif" font-size="13" lengthAdjust="spacingAndGlyphs" textLength="105" x="258.5" y="345.2305">Build application</text><line style="stroke: #A80036; stroke-width: 1.0;" x1="251.5" x2="293.5" y1="392.2832" y2="392.2832"/><line style="stroke: #A80036; stroke-width: 1.0;" x1="293.5" x2="293.5" y1="392.2832" y2="405.2832"/><line style="stroke: #A80036; stroke-width: 1.0;" x1="252.5" x2="293.5" y1="405.2832" y2="405.2832"/><polygon fill="#A80036" points="262.5,401.2832,252.5,405.2832,262.5,409.2832,258.5,405.2832" style="stroke: #A80036; stroke-width: 1.0;"/><text fill="#000000" font-family="sans-serif" font-size="13" lengthAdjust="spacingAndGlyphs" textLength="120" x="258.5" y="387.541">Build docker image</text><polygon fill="#A80036" points="382.5,430.5938,392.5,434.5938,382.5,438.5938,386.5,434.5938" style="stroke: #A80036; stroke-width: 1.0;"/><line style="stroke: #A80036; stroke-width: 1.0;" x1="251.5" x2="388.5" y1="434.5938" y2="434.5938"/><text fill="#000000" font-family="sans-serif" font-size="13" lengthAdjust="spacingAndGlyphs" textLength="119" x="258.5" y="429.8516">Push docker image</text><polygon fill="#A80036" points="262.5,459.9043,252.5,463.9043,262.5,467.9043,258.5,463.9043" style="stroke: #A80036; stroke-width: 1.0;"/><line style="stroke: #A80036; stroke-width: 1.0;" x1="256.5" x2="393.5" y1="463.9043" y2="463.9043"/><text fill="#000000" font-family="sans-serif" font-size="13" lengthAdjust="spacingAndGlyphs" textLength="18" x="268.5" y="459.1621">OK</text><polygon fill="#A80036" points="466,504.5254,476,508.5254,466,512.5254,470,508.5254" style="stroke: #A80036; stroke-width: 1.0;"/><line style="stroke: #A80036; stroke-width: 1.0;" x1="251.5" x2="472" y1="508.5254" y2="508.5254"/><text fill="#000000" font-family="sans-serif" font-size="13" lengthAdjust="spacingAndGlyphs" textLength="104" x="258.5" y="488.4727">Create or update</text><text fill="#000000" font-family="sans-serif" font-size="13" lengthAdjust="spacingAndGlyphs" textLength="69" x="258.5" y="503.7832">Helm chart</text><polygon fill="#A80036" points="665,564.457,675,568.457,665,572.457,669,568.457" style="stroke: #A80036; stroke-width: 1.0;"/><line style="stroke: #A80036; stroke-width: 1.0;" x1="478" x2="671" y1="568.457" y2="568.457"/><text fill="#000000" font-family="sans-serif" font-size="13" lengthAdjust="spacingAndGlyphs" textLength="104" x="485" y="533.0938">Create or update</text><text fill="#000000" font-family="sans-serif" font-size="13" lengthAdjust="spacingAndGlyphs" textLength="130" x="485" y="548.4043">deployment, service,</text><text fill="#000000" font-family="sans-serif" font-size="13" lengthAdjust="spacingAndGlyphs" textLength="175" x="485" y="563.7148">ingress, pod and containers</text><polygon fill="#A80036" points="489,593.7676,479,597.7676,489,601.7676,485,597.7676" style="stroke: #A80036; stroke-width: 1.0;"/><line style="stroke: #A80036; stroke-width: 1.0;" x1="483" x2="676" y1="597.7676" y2="597.7676"/><text fill="#000000" font-family="sans-serif" font-size="13" lengthAdjust="spacingAndGlyphs" textLength="18" x="495" y="593.0254">OK</text><polygon fill="#A80036" points="262.5,623.0781,252.5,627.0781,262.5,631.0781,258.5,627.0781" style="stroke: #A80036; stroke-width: 1.0;"/><line style="stroke: #A80036; stroke-width: 1.0;" x1="256.5" x2="477" y1="627.0781" y2="627.0781"/><text fill="#000000" font-family="sans-serif" font-size="13" lengthAdjust="spacingAndGlyphs" textLength="18" x="268.5" y="622.3359">OK</text><rect fill="#EEEEEE" filter="url(#f1gvdmyfnuncp)" height="3" style="stroke: #EEEEEE; stroke-width: 1.0;" width="929" x="3" y="655.7334"/><line style="stroke: #000000; stroke-width: 1.0;" x1="3" x2="932" y1="655.7334" y2="655.7334"/><line style="stroke: #000000; stroke-width: 1.0;" x1="3" x2="932" y1="658.7334" y2="658.7334"/><rect fill="#EEEEEE" filter="url(#f1gvdmyfnuncp)" height="23.3105" style="stroke: #000000; stroke-width: 2.0;" width="145" x="395" y="645.0781"/><text fill="#000000" font-family="sans-serif" font-size="13" font-weight="bold" lengthAdjust="spacingAndGlyphs" textLength="127" x="401" y="661.6465">Access Application</text><polygon fill="#A80036" points="756,695.6992,766,699.6992,756,703.6992,760,699.6992" style="stroke: #A80036; stroke-width: 1.0;"/><line style="stroke: #A80036; stroke-width: 1.0;" x1="45.5" x2="762" y1="699.6992" y2="699.6992"/><text fill="#000000" font-family="sans-serif" font-size="13" lengthAdjust="spacingAndGlyphs" textLength="87" x="52.5" y="694.957">/GET greeting</text><polygon fill="#A80036" points="867,725.0098,877,729.0098,867,733.0098,871,729.0098" style="stroke: #A80036; stroke-width: 1.0;"/><line style="stroke: #A80036; stroke-width: 1.0;" x1="768" x2="873" y1="729.0098" y2="729.0098"/><text fill="#000000" font-family="sans-serif" font-size="13" lengthAdjust="spacingAndGlyphs" textLength="87" x="775" y="724.2676">/GET greeting</text><polygon fill="#A80036" points="779,754.3203,769,758.3203,779,762.3203,775,758.3203" style="stroke: #A80036; stroke-width: 1.0;"/><line style="stroke: #A80036; stroke-width: 1.0;" x1="773" x2="878" y1="758.3203" y2="758.3203"/><text fill="#000000" font-family="sans-serif" font-size="13" lengthAdjust="spacingAndGlyphs" textLength="18" x="785" y="753.5781">OK</text><polygon fill="#A80036" points="56.5,783.6309,46.5,787.6309,56.5,791.6309,52.5,787.6309" style="stroke: #A80036; stroke-width: 1.0;"/><line style="stroke: #A80036; stroke-width: 1.0;" x1="50.5" x2="767" y1="787.6309" y2="787.6309"/><text fill="#000000" font-family="sans-serif" font-size="13" lengthAdjust="spacingAndGlyphs" textLength="18" x="62.5" y="782.8887">OK</text><!--
@startuml
actor "Developer" as developer
participant "GitHub" as git
participant "Jenkins" as jenkins
participant "DockerHub" as registry
participant "Tiller" as tiller
participant "Kubernetes" as k8s
participant "Traefik" as traefik
participant "Application" as application

== Build and Deploy Application ==
developer -> git: Push code
git -> developer: OK

git -> jenkins: Notify

jenkins -> jenkins: Run job
jenkins -> git: Checkout code
git -> jenkins: Code
jenkins -> jenkins: Build application
jenkins -> jenkins: Build docker image

jenkins -> registry: Push docker image
registry -> jenkins: OK

jenkins -> tiller: Create or update\nHelm chart

tiller -> k8s: Create or update\ndeployment, service,\ningress, pod and containers
k8s -> tiller: OK

tiller -> jenkins: OK

== Access Application ==
developer -> traefik: /GET greeting
traefik -> application: /GET greeting
application -> traefik: OK
traefik -> developer: OK

@enduml

PlantUML version 1.2019.09(Mon Aug 26 17:19:51 WEST 2019)
(GPL source distribution)
Java Runtime: Java(TM) SE Runtime Environment
JVM: Java HotSpot(TM) 64-Bit Server VM
Java Version: 13.0.1+9
Operating System: Mac OS X
OS Version: 10.15.1
Default Encoding: UTF-8
Language: en
Country: PT
--></g></svg>