<?xml version="1.0" encoding="UTF-8" standalone="no"?><svg xmlns="http://www.w3.org/2000/svg" xmlns:xlink="http://www.w3.org/1999/xlink" contentScriptType="application/ecmascript" contentStyleType="text/css" height="876px" preserveAspectRatio="none" style="width:864px;height:876px;" version="1.1" viewBox="0 0 864 876" width="864px" zoomAndPan="magnify"><defs><filter height="300%" id="f13hiavjsh1655" width="300%" x="-1" y="-1"><feGaussianBlur result="blurOut" stdDeviation="2.0"/><feColorMatrix in="blurOut" result="blurOut2" type="matrix" values="0 0 0 0 0 0 0 0 0 0 0 0 0 0 0 0 0 0 .4 0"/><feOffset dx="4.0" dy="4.0" in="blurOut2" result="blurOut3"/><feBlend in="SourceGraphic" in2="blurOut3" mode="normal"/></filter></defs><g><line style="stroke: #A80036; stroke-width: 1.0; stroke-dasharray: 5.0,5.0;" x1="45" x2="45" y1="86.4883" y2="789.3203"/><line style="stroke: #A80036; stroke-width: 1.0; stroke-dasharray: 5.0,5.0;" x1="133" x2="133" y1="86.4883" y2="789.3203"/><line style="stroke: #A80036; stroke-width: 1.0; stroke-dasharray: 5.0,5.0;" x1="251" x2="251" y1="86.4883" y2="789.3203"/><line style="stroke: #A80036; stroke-width: 1.0; stroke-dasharray: 5.0,5.0;" x1="394.5" x2="394.5" y1="86.4883" y2="789.3203"/><line style="stroke: #A80036; stroke-width: 1.0; stroke-dasharray: 5.0,5.0;" x1="499.5" x2="499.5" y1="86.4883" y2="789.3203"/><line style="stroke: #A80036; stroke-width: 1.0; stroke-dasharray: 5.0,5.0;" x1="688.5" x2="688.5" y1="86.4883" y2="789.3203"/><line style="stroke: #A80036; stroke-width: 1.0; stroke-dasharray: 5.0,5.0;" x1="799.5" x2="799.5" y1="86.4883" y2="789.3203"/><text fill="#000000" font-family="sans-serif" font-size="14" lengthAdjust="spacingAndGlyphs" textLength="69" x="8" y="83.5352">Developer</text><ellipse cx="45.5" cy="13" fill="#FEFECE" filter="url(#f13hiavjsh1655)" rx="8" ry="8" style="stroke: #A80036; stroke-width: 2.0;"/><path d="M45.5,21 L45.5,48 M32.5,29 L58.5,29 M45.5,48 L32.5,63 M45.5,48 L58.5,63 " fill="none" filter="url(#f13hiavjsh1655)" style="stroke: #A80036; stroke-width: 2.0;"/><text fill="#000000" font-family="sans-serif" font-size="14" lengthAdjust="spacingAndGlyphs" textLength="69" x="8" y="801.8555">Developer</text><ellipse cx="45.5" cy="814.8086" fill="#FEFECE" filter="url(#f13hiavjsh1655)" rx="8" ry="8" style="stroke: #A80036; stroke-width: 2.0;"/><path d="M45.5,822.8086 L45.5,849.8086 M32.5,830.8086 L58.5,830.8086 M45.5,849.8086 L32.5,864.8086 M45.5,849.8086 L58.5,864.8086 " fill="none" filter="url(#f13hiavjsh1655)" style="stroke: #A80036; stroke-width: 2.0;"/><rect fill="#FEFECE" filter="url(#f13hiavjsh1655)" height="30.4883" style="stroke: #A80036; stroke-width: 1.5;" width="61" x="101" y="51"/><text fill="#000000" font-family="sans-serif" font-size="14" lengthAdjust="spacingAndGlyphs" textLength="47" x="108" y="71.5352">GitHub</text><rect fill="#FEFECE" filter="url(#f13hiavjsh1655)" height="30.4883" style="stroke: #A80036; stroke-width: 1.5;" width="61" x="101" y="788.3203"/><text fill="#000000" font-family="sans-serif" font-size="14" lengthAdjust="spacingAndGlyphs" textLength="47" x="108" y="808.8555">GitHub</text><rect fill="#FEFECE" filter="url(#f13hiavjsh1655)" height="30.4883" style="stroke: #A80036; stroke-width: 1.5;" width="63" x="218" y="51"/><text fill="#000000" font-family="sans-serif" font-size="14" lengthAdjust="spacingAndGlyphs" textLength="49" x="225" y="71.5352">Jenkins</text><rect fill="#FEFECE" filter="url(#f13hiavjsh1655)" height="30.4883" style="stroke: #A80036; stroke-width: 1.5;" width="63" x="218" y="788.3203"/><text fill="#000000" font-family="sans-serif" font-size="14" lengthAdjust="spacingAndGlyphs" textLength="49" x="225" y="808.8555">Jenkins</text><rect fill="#FEFECE" filter="url(#f13hiavjsh1655)" height="30.4883" style="stroke: #A80036; stroke-width: 1.5;" width="90" x="347.5" y="51"/><text fill="#000000" font-family="sans-serif" font-size="14" lengthAdjust="spacingAndGlyphs" textLength="76" x="354.5" y="71.5352">DockerHub</text><rect fill="#FEFECE" filter="url(#f13hiavjsh1655)" height="30.4883" style="stroke: #A80036; stroke-width: 1.5;" width="90" x="347.5" y="788.3203"/><text fill="#000000" font-family="sans-serif" font-size="14" lengthAdjust="spacingAndGlyphs" textLength="76" x="354.5" y="808.8555">DockerHub</text><rect fill="#FEFECE" filter="url(#f13hiavjsh1655)" height="30.4883" style="stroke: #A80036; stroke-width: 1.5;" width="92" x="451.5" y="51"/><text fill="#000000" font-family="sans-serif" font-size="14" lengthAdjust="spacingAndGlyphs" textLength="78" x="458.5" y="71.5352">Kubernetes</text><rect fill="#FEFECE" filter="url(#f13hiavjsh1655)" height="30.4883" style="stroke: #A80036; stroke-width: 1.5;" width="92" x="451.5" y="788.3203"/><text fill="#000000" font-family="sans-serif" font-size="14" lengthAdjust="spacingAndGlyphs" textLength="78" x="458.5" y="808.8555">Kubernetes</text><rect fill="#FEFECE" filter="url(#f13hiavjsh1655)" height="30.4883" style="stroke: #A80036; stroke-width: 1.5;" width="62" x="655.5" y="51"/><text fill="#000000" font-family="sans-serif" font-size="14" lengthAdjust="spacingAndGlyphs" textLength="48" x="662.5" y="71.5352">Traefik</text><rect fill="#FEFECE" filter="url(#f13hiavjsh1655)" height="30.4883" style="stroke: #A80036; stroke-width: 1.5;" width="62" x="655.5" y="788.3203"/><text fill="#000000" font-family="sans-serif" font-size="14" lengthAdjust="spacingAndGlyphs" textLength="48" x="662.5" y="808.8555">Traefik</text><rect fill="#FEFECE" filter="url(#f13hiavjsh1655)" height="30.4883" style="stroke: #A80036; stroke-width: 1.5;" width="92" x="751.5" y="51"/><text fill="#000000" font-family="sans-serif" font-size="14" lengthAdjust="spacingAndGlyphs" textLength="78" x="758.5" y="71.5352">Application</text><rect fill="#FEFECE" filter="url(#f13hiavjsh1655)" height="30.4883" style="stroke: #A80036; stroke-width: 1.5;" width="92" x="751.5" y="788.3203"/><text fill="#000000" font-family="sans-serif" font-size="14" lengthAdjust="spacingAndGlyphs" textLength="78" x="758.5" y="808.8555">Application</text><rect fill="#EEEEEE" filter="url(#f13hiavjsh1655)" height="3" style="stroke: #EEEEEE; stroke-width: 1.0;" width="849.5" x="3" y="117.1436"/><line style="stroke: #000000; stroke-width: 1.0;" x1="3" x2="852.5" y1="117.1436" y2="117.1436"/><line style="stroke: #000000; stroke-width: 1.0;" x1="3" x2="852.5" y1="120.1436" y2="120.1436"/><rect fill="#EEEEEE" filter="url(#f13hiavjsh1655)" height="23.3105" style="stroke: #000000; stroke-width: 2.0;" width="214" x="320.75" y="106.4883"/><text fill="#000000" font-family="sans-serif" font-size="13" font-weight="bold" lengthAdjust="spacingAndGlyphs" textLength="196" x="326.75" y="123.0566">Build and Deploy Application</text><polygon fill="#A80036" points="121.5,157.1094,131.5,161.1094,121.5,165.1094,125.5,161.1094" style="stroke: #A80036; stroke-width: 1.0;"/><line style="stroke: #A80036; stroke-width: 1.0;" x1="45.5" x2="127.5" y1="161.1094" y2="161.1094"/><text fill="#000000" font-family="sans-serif" font-size="13" lengthAdjust="spacingAndGlyphs" textLength="64" x="52.5" y="156.3672">Push code</text><polygon fill="#A80036" points="56.5,186.4199,46.5,190.4199,56.5,194.4199,52.5,190.4199" style="stroke: #A80036; stroke-width: 1.0;"/><line style="stroke: #A80036; stroke-width: 1.0;" x1="50.5" x2="132.5" y1="190.4199" y2="190.4199"/><text fill="#000000" font-family="sans-serif" font-size="13" lengthAdjust="spacingAndGlyphs" textLength="18" x="62.5" y="185.6777">OK</text><polygon fill="#A80036" points="239.5,215.7305,249.5,219.7305,239.5,223.7305,243.5,219.7305" style="stroke: #A80036; stroke-width: 1.0;"/><line style="stroke: #A80036; stroke-width: 1.0;" x1="133.5" x2="245.5" y1="219.7305" y2="219.7305"/><text fill="#000000" font-family="sans-serif" font-size="13" lengthAdjust="spacingAndGlyphs" textLength="39" x="140.5" y="214.9883">Notify</text><line style="stroke: #A80036; stroke-width: 1.0;" x1="251.5" x2="293.5" y1="249.041" y2="249.041"/><line style="stroke: #A80036; stroke-width: 1.0;" x1="293.5" x2="293.5" y1="249.041" y2="262.041"/><line style="stroke: #A80036; stroke-width: 1.0;" x1="252.5" x2="293.5" y1="262.041" y2="262.041"/><polygon fill="#A80036" points="262.5,258.041,252.5,262.041,262.5,266.041,258.5,262.041" style="stroke: #A80036; stroke-width: 1.0;"/><text fill="#000000" font-family="sans-serif" font-size="13" lengthAdjust="spacingAndGlyphs" textLength="48" x="258.5" y="244.2988">Run job</text><polygon fill="#A80036" points="144.5,287.3516,134.5,291.3516,144.5,295.3516,140.5,291.3516" style="stroke: #A80036; stroke-width: 1.0;"/><line style="stroke: #A80036; stroke-width: 1.0;" x1="138.5" x2="250.5" y1="291.3516" y2="291.3516"/><text fill="#000000" font-family="sans-serif" font-size="13" lengthAdjust="spacingAndGlyphs" textLength="94" x="150.5" y="286.6094">Checkout code</text><polygon fill="#A80036" points="239.5,316.6621,249.5,320.6621,239.5,324.6621,243.5,320.6621" style="stroke: #A80036; stroke-width: 1.0;"/><line style="stroke: #A80036; stroke-width: 1.0;" x1="133.5" x2="245.5" y1="320.6621" y2="320.6621"/><text fill="#000000" font-family="sans-serif" font-size="13" lengthAdjust="spacingAndGlyphs" textLength="32" x="140.5" y="315.9199">Code</text><line style="stroke: #A80036; stroke-width: 1.0;" x1="251.5" x2="293.5" y1="349.9727" y2="349.9727"/><line style="stroke: #A80036; stroke-width: 1.0;" x1="293.5" x2="293.5" y1="349.9727" y2="362.9727"/><line style="stroke: #A80036; stroke-width: 1.0;" x1="252.5" x2="293.5" y1="362.9727" y2="362.9727"/><polygon fill="#A80036" points="262.5,358.9727,252.5,362.9727,262.5,366.9727,258.5,362.9727" style="stroke: #A80036; stroke-width: 1.0;"/><text fill="#000000" font-family="sans-serif" font-size="13" lengthAdjust="spacingAndGlyphs" textLength="105" x="258.5" y="345.2305">Build application</text><line style="stroke: #A80036; stroke-width: 1.0;" x1="251.5" x2="293.5" y1="392.2832" y2="392.2832"/><line style="stroke: #A80036; stroke-width: 1.0;" x1="293.5" x2="293.5" y1="392.2832" y2="405.2832"/><line style="stroke: #A80036; stroke-width: 1.0;" x1="252.5" x2="293.5" y1="405.2832" y2="405.2832"/><polygon fill="#A80036" points="262.5,401.2832,252.5,405.2832,262.5,409.2832,258.5,405.2832" style="stroke: #A80036; stroke-width: 1.0;"/><text fill="#000000" font-family="sans-serif" font-size="13" lengthAdjust="spacingAndGlyphs" textLength="120" x="258.5" y="387.541">Build docker image</text><polygon fill="#A80036" points="382.5,430.5938,392.5,434.5938,382.5,438.5938,386.5,434.5938" style="stroke: #A80036; stroke-width: 1.0;"/><line style="stroke: #A80036; stroke-width: 1.0;" x1="251.5" x2="388.5" y1="434.5938" y2="434.5938"/><text fill="#000000" font-family="sans-serif" font-size="13" lengthAdjust="spacingAndGlyphs" textLength="119" x="258.5" y="429.8516">Push docker image</text><polygon fill="#A80036" points="262.5,459.9043,252.5,463.9043,262.5,467.9043,258.5,463.9043" style="stroke: #A80036; stroke-width: 1.0;"/><line style="stroke: #A80036; stroke-width: 1.0;" x1="256.5" x2="393.5" y1="463.9043" y2="463.9043"/><text fill="#000000" font-family="sans-serif" font-size="13" lengthAdjust="spacingAndGlyphs" textLength="18" x="268.5" y="459.1621">OK</text><polygon fill="#A80036" points="487.5,504.5254,497.5,508.5254,487.5,512.5254,491.5,508.5254" style="stroke: #A80036; stroke-width: 1.0;"/><line style="stroke: #A80036; stroke-width: 1.0;" x1="251.5" x2="493.5" y1="508.5254" y2="508.5254"/><text fill="#000000" font-family="sans-serif" font-size="13" lengthAdjust="spacingAndGlyphs" textLength="104" x="258.5" y="488.4727">Create or update</text><text fill="#000000" font-family="sans-serif" font-size="13" lengthAdjust="spacingAndGlyphs" textLength="69" x="258.5" y="503.7832">Helm chart</text><line style="stroke: #A80036; stroke-width: 1.0;" x1="499.5" x2="541.5" y1="568.457" y2="568.457"/><line style="stroke: #A80036; stroke-width: 1.0;" x1="541.5" x2="541.5" y1="568.457" y2="581.457"/><line style="stroke: #A80036; stroke-width: 1.0;" x1="500.5" x2="541.5" y1="581.457" y2="581.457"/><polygon fill="#A80036" points="510.5,577.457,500.5,581.457,510.5,585.457,506.5,581.457" style="stroke: #A80036; stroke-width: 1.0;"/><text fill="#000000" font-family="sans-serif" font-size="13" lengthAdjust="spacingAndGlyphs" textLength="104" x="506.5" y="533.0938">Create or update</text><text fill="#000000" font-family="sans-serif" font-size="13" lengthAdjust="spacingAndGlyphs" textLength="130" x="506.5" y="548.4043">deployment, service,</text><text fill="#000000" font-family="sans-serif" font-size="13" lengthAdjust="spacingAndGlyphs" textLength="175" x="506.5" y="563.7148">ingress, pod and containers</text><polygon fill="#A80036" points="262.5,606.7676,252.5,610.7676,262.5,614.7676,258.5,610.7676" style="stroke: #A80036; stroke-width: 1.0;"/><line style="stroke: #A80036; stroke-width: 1.0;" x1="256.5" x2="498.5" y1="610.7676" y2="610.7676"/><text fill="#000000" font-family="sans-serif" font-size="13" lengthAdjust="spacingAndGlyphs" textLength="18" x="268.5" y="606.0254">OK</text><rect fill="#EEEEEE" filter="url(#f13hiavjsh1655)" height="3" style="stroke: #EEEEEE; stroke-width: 1.0;" width="849.5" x="3" y="639.4229"/><line style="stroke: #000000; stroke-width: 1.0;" x1="3" x2="852.5" y1="639.4229" y2="639.4229"/><line style="stroke: #000000; stroke-width: 1.0;" x1="3" x2="852.5" y1="642.4229" y2="642.4229"/><rect fill="#EEEEEE" filter="url(#f13hiavjsh1655)" height="23.3105" style="stroke: #000000; stroke-width: 2.0;" width="145" x="355.25" y="628.7676"/><text fill="#000000" font-family="sans-serif" font-size="13" font-weight="bold" lengthAdjust="spacingAndGlyphs" textLength="127" x="361.25" y="645.3359">Access Application</text><polygon fill="#A80036" points="676.5,679.3887,686.5,683.3887,676.5,687.3887,680.5,683.3887" style="stroke: #A80036; stroke-width: 1.0;"/><line style="stroke: #A80036; stroke-width: 1.0;" x1="45.5" x2="682.5" y1="683.3887" y2="683.3887"/><text fill="#000000" font-family="sans-serif" font-size="13" lengthAdjust="spacingAndGlyphs" textLength="87" x="52.5" y="678.6465">/GET greeting</text><polygon fill="#A80036" points="787.5,708.6992,797.5,712.6992,787.5,716.6992,791.5,712.6992" style="stroke: #A80036; stroke-width: 1.0;"/><line style="stroke: #A80036; stroke-width: 1.0;" x1="688.5" x2="793.5" y1="712.6992" y2="712.6992"/><text fill="#000000" font-family="sans-serif" font-size="13" lengthAdjust="spacingAndGlyphs" textLength="87" x="695.5" y="707.957">/GET greeting</text><polygon fill="#A80036" points="699.5,738.0098,689.5,742.0098,699.5,746.0098,695.5,742.0098" style="stroke: #A80036; stroke-width: 1.0;"/><line style="stroke: #A80036; stroke-width: 1.0;" x1="693.5" x2="798.5" y1="742.0098" y2="742.0098"/><text fill="#000000" font-family="sans-serif" font-size="13" lengthAdjust="spacingAndGlyphs" textLength="18" x="705.5" y="737.2676">OK</text><polygon fill="#A80036" points="56.5,767.3203,46.5,771.3203,56.5,775.3203,52.5,771.3203" style="stroke: #A80036; stroke-width: 1.0;"/><line style="stroke: #A80036; stroke-width: 1.0;" x1="50.5" x2="687.5" y1="771.3203" y2="771.3203"/><text fill="#000000" font-family="sans-serif" font-size="13" lengthAdjust="spacingAndGlyphs" textLength="18" x="62.5" y="766.5781">OK</text><!--
@startuml
actor "Developer" as developer
participant "GitHub" as git
participant "Jenkins" as jenkins
participant "DockerHub" as registry
participant "Kubernetes" as k8s
participant "Traefik" as traefik
participant "Application" as application

== Build and Deploy Application ==
developer -> git: Push code
git -> developer: OK

git -> jenkins: Notify

jenkins -> jenkins: Run job
jenkins -> git: Checkout code
git -> jenkins: Code
jenkins -> jenkins: Build application
jenkins -> jenkins: Build docker image

jenkins -> registry: Push docker image
registry -> jenkins: OK

jenkins -> k8s: Create or update\nHelm chart

k8s -> k8s: Create or update\ndeployment, service,\ningress, pod and containers

k8s -> jenkins: OK

== Access Application ==
developer -> traefik: /GET greeting
traefik -> application: /GET greeting
application -> traefik: OK
traefik -> developer: OK

@enduml

PlantUML version 1.2019.09(Mon Aug 26 17:19:51 WEST 2019)
(GPL source distribution)
Java Runtime: Java(TM) SE Runtime Environment
JVM: Java HotSpot(TM) 64-Bit Server VM
Java Version: 13.0.1+9
Operating System: Mac OS X
OS Version: 10.15.3
Default Encoding: UTF-8
Language: en
Country: PT
--></g></svg>