<?xml version="1.0" encoding="UTF-8" standalone="no"?><svg xmlns="http://www.w3.org/2000/svg" xmlns:xlink="http://www.w3.org/1999/xlink" contentScriptType="application/ecmascript" contentStyleType="text/css" height="287px" preserveAspectRatio="none" style="width:122px;height:287px;" version="1.1" viewBox="0 0 122 287" width="122px" zoomAndPan="magnify"><defs><filter height="300%" id="fzcsonsc84eul" width="300%" x="-1" y="-1"><feGaussianBlur result="blurOut" stdDeviation="2.0"/><feColorMatrix in="blurOut" result="blurOut2" type="matrix" values="0 0 0 0 0 0 0 0 0 0 0 0 0 0 0 0 0 0 .4 0"/><feOffset dx="4.0" dy="4.0" in="blurOut2" result="blurOut3"/><feBlend in="SourceGraphic" in2="blurOut3" mode="normal"/></filter></defs><g><!--class User--><rect fill="#FEFECE" filter="url(#fzcsonsc84eul)" height="268.2363" id="User" style="stroke: #A80036; stroke-width: 1.5;" width="105" x="6" y="8"/><ellipse cx="42.15" cy="24" fill="#ADD1B2" rx="11" ry="11" style="stroke: #A80036; stroke-width: 1.0;"/><path d="M44.6231,30.1431 Q44.0421,30.4419 43.4029,30.5913 Q42.7638,30.7407 42.0582,30.7407 Q39.5514,30.7407 38.2315,29.0889 Q36.9117,27.437 36.9117,24.3159 Q36.9117,21.1865 38.2315,19.5347 Q39.5514,17.8828 42.0582,17.8828 Q42.7638,17.8828 43.4112,18.0322 Q44.0587,18.1816 44.6231,18.4805 L44.6231,21.2031 Q43.9923,20.6221 43.3988,20.3523 Q42.8053,20.0825 42.1744,20.0825 Q40.8297,20.0825 40.1449,21.1492 Q39.4601,22.2158 39.4601,24.3159 Q39.4601,26.4077 40.1449,27.4744 Q40.8297,28.541 42.1744,28.541 Q42.8053,28.541 43.3988,28.2712 Q43.9923,28.0015 44.6231,27.4204 Z "/><text fill="#000000" font-family="sans-serif" font-size="12" lengthAdjust="spacingAndGlyphs" textLength="26" x="60.85" y="28.5352">User</text><line style="stroke: #A80036; stroke-width: 1.5;" x1="7" x2="110" y1="40" y2="40"/><rect fill="none" height="6" style="stroke: #C82930; stroke-width: 1.0;" width="6" x="14" y="48.9775"/><text fill="#000000" font-family="sans-serif" font-size="11" lengthAdjust="spacingAndGlyphs" textLength="10" x="26" y="54.6348">id</text><rect fill="none" height="6" style="stroke: #C82930; stroke-width: 1.0;" width="6" x="14" y="61.9326"/><text fill="#000000" font-family="sans-serif" font-size="11" lengthAdjust="spacingAndGlyphs" textLength="52" x="26" y="67.5898">firstName</text><rect fill="none" height="6" style="stroke: #C82930; stroke-width: 1.0;" width="6" x="14" y="74.8877"/><text fill="#000000" font-family="sans-serif" font-size="11" lengthAdjust="spacingAndGlyphs" textLength="49" x="26" y="80.5449">lastName</text><rect fill="none" height="6" style="stroke: #C82930; stroke-width: 1.0;" width="6" x="14" y="87.8428"/><text fill="#000000" font-family="sans-serif" font-size="11" lengthAdjust="spacingAndGlyphs" textLength="19" x="26" y="93.5">city</text><line style="stroke: #A80036; stroke-width: 1.5;" x1="7" x2="110" y1="99.8203" y2="99.8203"/><ellipse cx="17" cy="111.7979" fill="#84BE84" rx="3" ry="3" style="stroke: #038048; stroke-width: 1.0;"/><text fill="#000000" font-family="sans-serif" font-size="11" lengthAdjust="spacingAndGlyphs" textLength="35" x="26" y="114.4551">getId()</text><ellipse cx="17" cy="124.7529" fill="#84BE84" rx="3" ry="3" style="stroke: #038048; stroke-width: 1.0;"/><text fill="#000000" font-family="sans-serif" font-size="11" lengthAdjust="spacingAndGlyphs" textLength="34" x="26" y="127.4102">setId()</text><text fill="#000000" font-family="sans-serif" font-size="11" lengthAdjust="spacingAndGlyphs" textLength="0" x="29" y="140.3652"/><ellipse cx="17" cy="150.6631" fill="#84BE84" rx="3" ry="3" style="stroke: #038048; stroke-width: 1.0;"/><text fill="#000000" font-family="sans-serif" font-size="11" lengthAdjust="spacingAndGlyphs" textLength="79" x="26" y="153.3203">getFirstName()</text><ellipse cx="17" cy="163.6182" fill="#84BE84" rx="3" ry="3" style="stroke: #038048; stroke-width: 1.0;"/><text fill="#000000" font-family="sans-serif" font-size="11" lengthAdjust="spacingAndGlyphs" textLength="78" x="26" y="166.2754">setFirstName()</text><text fill="#000000" font-family="sans-serif" font-size="11" lengthAdjust="spacingAndGlyphs" textLength="0" x="29" y="179.2305"/><ellipse cx="17" cy="189.5283" fill="#84BE84" rx="3" ry="3" style="stroke: #038048; stroke-width: 1.0;"/><text fill="#000000" font-family="sans-serif" font-size="11" lengthAdjust="spacingAndGlyphs" textLength="77" x="26" y="192.1855">getLastName()</text><ellipse cx="17" cy="202.4834" fill="#84BE84" rx="3" ry="3" style="stroke: #038048; stroke-width: 1.0;"/><text fill="#000000" font-family="sans-serif" font-size="11" lengthAdjust="spacingAndGlyphs" textLength="76" x="26" y="205.1406">setLastName()</text><text fill="#000000" font-family="sans-serif" font-size="11" lengthAdjust="spacingAndGlyphs" textLength="0" x="29" y="218.0957"/><ellipse cx="17" cy="228.3936" fill="#84BE84" rx="3" ry="3" style="stroke: #038048; stroke-width: 1.0;"/><text fill="#000000" font-family="sans-serif" font-size="11" lengthAdjust="spacingAndGlyphs" textLength="46" x="26" y="231.0508">getCity()</text><ellipse cx="17" cy="241.3486" fill="#84BE84" rx="3" ry="3" style="stroke: #038048; stroke-width: 1.0;"/><text fill="#000000" font-family="sans-serif" font-size="11" lengthAdjust="spacingAndGlyphs" textLength="45" x="26" y="244.0059">setCity()</text><text fill="#000000" font-family="sans-serif" font-size="11" lengthAdjust="spacingAndGlyphs" textLength="0" x="29" y="256.9609"/><ellipse cx="17" cy="267.2588" fill="#84BE84" rx="3" ry="3" style="stroke: #038048; stroke-width: 1.0;"/><text fill="#000000" font-family="sans-serif" font-size="11" lengthAdjust="spacingAndGlyphs" textLength="51" x="26" y="269.916">toString()</text><!--
@startuml

class User {
    - id
    - firstName
    - lastName
    - city

    +getId()
    +setId()

    +getFirstName()
    +setFirstName()

    +getLastName()
    +setLastName()

    +getCity()
    +setCity()

    +toString()
}

@enduml

PlantUML version 1.2018.12(Sun Oct 21 11:15:15 WEST 2018)
(GPL source distribution)
Java Runtime: OpenJDK Runtime Environment
JVM: OpenJDK 64-Bit Server VM
Java Version: 11.0.1+13
Operating System: Mac OS X
OS Version: 10.14.2
Default Encoding: US-ASCII
Language: en
Country: GB
--></g></svg>