<?xml version="1.0" encoding="UTF-8" standalone="no"?><svg xmlns="http://www.w3.org/2000/svg" xmlns:xlink="http://www.w3.org/1999/xlink" contentScriptType="application/ecmascript" contentStyleType="text/css" height="296px" preserveAspectRatio="none" style="width:518px;height:296px;" version="1.1" viewBox="0 0 518 296" width="518px" zoomAndPan="magnify"><defs><filter height="300%" id="fhr6g2fgrdee1" width="300%" x="-1" y="-1"><feGaussianBlur result="blurOut" stdDeviation="2.0"/><feColorMatrix in="blurOut" result="blurOut2" type="matrix" values="0 0 0 0 0 0 0 0 0 0 0 0 0 0 0 0 0 0 .4 0"/><feOffset dx="4.0" dy="4.0" in="blurOut2" result="blurOut3"/><feBlend in="SourceGraphic" in2="blurOut3" mode="normal"/></filter></defs><g><!--cluster Docker--><polygon fill="#FFFFFF" filter="url(#fhr6g2fgrdee1)" points="14,26,24,16,496,16,496,274,486,284,14,284,14,26" style="stroke: #000000; stroke-width: 1.5;"/><line style="stroke: #000000; stroke-width: 1.5;" x1="486" x2="495" y1="26" y2="17"/><line style="stroke: #000000; stroke-width: 1.5;" x1="14" x2="486" y1="26" y2="26"/><line style="stroke: #000000; stroke-width: 1.5;" x1="486" x2="486" y1="26" y2="284"/><text fill="#000000" font-family="sans-serif" font-size="14" font-weight="bold" lengthAdjust="spacingAndGlyphs" textLength="50" x="226" y="42.5352">Docker</text><!--entity Zookeeper--><rect fill="#FEFECE" filter="url(#fhr6g2fgrdee1)" height="36.4883" style="stroke: #A80036; stroke-width: 1.5;" width="93" x="100.5" y="144"/><rect fill="#FEFECE" height="5" style="stroke: #A80036; stroke-width: 1.5;" width="10" x="95.5" y="149"/><rect fill="#FEFECE" height="5" style="stroke: #A80036; stroke-width: 1.5;" width="10" x="95.5" y="170.4883"/><text fill="#000000" font-family="sans-serif" font-size="14" lengthAdjust="spacingAndGlyphs" textLength="73" x="110.5" y="167.5352">Zookeeper</text><!--entity Kafka--><rect fill="#FEFECE" filter="url(#fhr6g2fgrdee1)" height="36.4883" style="stroke: #A80036; stroke-width: 1.5;" width="58" x="229" y="144"/><rect fill="#FEFECE" height="5" style="stroke: #A80036; stroke-width: 1.5;" width="10" x="224" y="149"/><rect fill="#FEFECE" height="5" style="stroke: #A80036; stroke-width: 1.5;" width="10" x="224" y="170.4883"/><text fill="#000000" font-family="sans-serif" font-size="14" lengthAdjust="spacingAndGlyphs" textLength="38" x="239" y="167.5352">Kafka</text><!--entity Producer--><rect fill="#FEFECE" filter="url(#fhr6g2fgrdee1)" height="36.4883" style="stroke: #A80036; stroke-width: 1.5;" width="82" x="217" y="48"/><rect fill="#FEFECE" height="5" style="stroke: #A80036; stroke-width: 1.5;" width="10" x="212" y="53"/><rect fill="#FEFECE" height="5" style="stroke: #A80036; stroke-width: 1.5;" width="10" x="212" y="74.4883"/><text fill="#000000" font-family="sans-serif" font-size="14" lengthAdjust="spacingAndGlyphs" textLength="62" x="227" y="71.5352">Producer</text><!--entity Kafka Consumer--><rect fill="#FEFECE" filter="url(#fhr6g2fgrdee1)" height="36.4883" style="stroke: #A80036; stroke-width: 1.5;" width="133" x="22.5" y="240"/><rect fill="#FEFECE" height="5" style="stroke: #A80036; stroke-width: 1.5;" width="10" x="17.5" y="245"/><rect fill="#FEFECE" height="5" style="stroke: #A80036; stroke-width: 1.5;" width="10" x="17.5" y="266.4883"/><text fill="#000000" font-family="sans-serif" font-size="14" lengthAdjust="spacingAndGlyphs" textLength="113" x="32.5" y="263.5352">Kafka Consumer</text><!--entity Spark Consumer--><rect fill="#FEFECE" filter="url(#fhr6g2fgrdee1)" height="36.4883" style="stroke: #A80036; stroke-width: 1.5;" width="134" x="191" y="240"/><rect fill="#FEFECE" height="5" style="stroke: #A80036; stroke-width: 1.5;" width="10" x="186" y="245"/><rect fill="#FEFECE" height="5" style="stroke: #A80036; stroke-width: 1.5;" width="10" x="186" y="266.4883"/><text fill="#000000" font-family="sans-serif" font-size="14" lengthAdjust="spacingAndGlyphs" textLength="114" x="201" y="263.5352">Spark Consumer</text><!--entity Flink Consumer--><rect fill="#FEFECE" filter="url(#fhr6g2fgrdee1)" height="36.4883" style="stroke: #A80036; stroke-width: 1.5;" width="128" x="360" y="240"/><rect fill="#FEFECE" height="5" style="stroke: #A80036; stroke-width: 1.5;" width="10" x="355" y="245"/><rect fill="#FEFECE" height="5" style="stroke: #A80036; stroke-width: 1.5;" width="10" x="355" y="266.4883"/><text fill="#000000" font-family="sans-serif" font-size="14" lengthAdjust="spacingAndGlyphs" textLength="108" x="370" y="263.5352">Flink Consumer</text><!--link Zookeeper to Kafka--><path d="M193.8281,162 C203.7897,162 213.7513,162 223.7129,162 " fill="none" id="Zookeeper-Kafka" style="stroke: #A80036; stroke-width: 1.0;"/><polygon fill="#A80036" points="228.9221,162,219.9221,158,223.9221,162,219.9221,166,228.9221,162" style="stroke: #A80036; stroke-width: 1.0;"/><!--link Producer to Kafka--><path d="M258,84.0569 C258,99.5126 258,121.8647 258,138.6731 " fill="none" id="Producer-Kafka" style="stroke: #A80036; stroke-width: 1.0;"/><polygon fill="#A80036" points="258,143.6977,262,134.6977,258,138.6977,254,134.6977,258,143.6977" style="stroke: #A80036; stroke-width: 1.0;"/><!--link Kafka to Kafka Consumer--><path d="M228.9479,178.503 C200.2537,194.8026 156.2868,219.7779 125.3053,237.3769 " fill="none" id="Kafka-Kafka Consumer" style="stroke: #A80036; stroke-width: 1.0;"/><polygon fill="#A80036" points="120.8318,239.918,130.6331,238.9508,125.1794,237.4484,126.6818,231.9947,120.8318,239.918" style="stroke: #A80036; stroke-width: 1.0;"/><!--link Kafka to Spark Consumer--><path d="M258,180.0569 C258,195.5126 258,217.8647 258,234.6731 " fill="none" id="Kafka-Spark Consumer" style="stroke: #A80036; stroke-width: 1.0;"/><polygon fill="#A80036" points="258,239.6977,262,230.6977,258,234.6977,254,230.6977,258,239.6977" style="stroke: #A80036; stroke-width: 1.0;"/><!--link Kafka to Flink Consumer--><path d="M287.2954,178.9419 C315.5063,195.2567 358.2235,219.9606 388.3858,237.4038 " fill="none" id="Kafka-Flink Consumer" style="stroke: #A80036; stroke-width: 1.0;"/><polygon fill="#A80036" points="392.7416,239.9229,386.9532,231.9546,388.4133,237.4197,382.9481,238.8799,392.7416,239.9229" style="stroke: #A80036; stroke-width: 1.0;"/><!--
@startuml
node "Docker" {
    [Zookeeper] -> [Kafka]
    [Producer] - -> [Kafka]
    [Kafka] - -> [Kafka Consumer]
    [Kafka] - -> [Spark Consumer]
    [Kafka] - -> [Flink Consumer]
}
@enduml

PlantUML version 1.2018.03(Thu Apr 05 17:59:15 WEST 2018)
(GPL source distribution)
Java Runtime: Java(TM) SE Runtime Environment
JVM: Java HotSpot(TM) 64-Bit Server VM
Java Version: 10.0.1+10
Operating System: Mac OS X
OS Version: 10.13.4
Default Encoding: US-ASCII
Language: en
Country: PT
--></g></svg>