<?xml version="1.0" encoding="UTF-8" standalone="no"?><svg xmlns="http://www.w3.org/2000/svg" xmlns:xlink="http://www.w3.org/1999/xlink" contentScriptType="application/ecmascript" contentStyleType="text/css" height="472px" preserveAspectRatio="none" style="width:591px;height:472px;" version="1.1" viewBox="0 0 591 472" width="591px" zoomAndPan="magnify"><defs><filter height="300%" id="fysc7ko3287ny" width="300%" x="-1" y="-1"><feGaussianBlur result="blurOut" stdDeviation="2.0"/><feColorMatrix in="blurOut" result="blurOut2" type="matrix" values="0 0 0 0 0 0 0 0 0 0 0 0 0 0 0 0 0 0 .4 0"/><feOffset dx="4.0" dy="4.0" in="blurOut2" result="blurOut3"/><feBlend in="SourceGraphic" in2="blurOut3" mode="normal"/></filter></defs><g><!--cluster Topic--><rect fill="#FFFFFF" filter="url(#fysc7ko3287ny)" height="364" style="stroke: #000000; stroke-width: 1.5;" width="153" x="160" y="65"/><text fill="#000000" font-family="sans-serif" font-size="14" font-weight="bold" lengthAdjust="spacingAndGlyphs" textLength="40" x="216.5" y="80.5352">Topic</text><!--cluster Broker 1--><polygon fill="#FFFFFF" filter="url(#fysc7ko3287ny)" points="168,102,178,92,305,92,305,229,295,239,168,239,168,102" style="stroke: #000000; stroke-width: 1.5;"/><line style="stroke: #000000; stroke-width: 1.5;" x1="295" x2="304" y1="102" y2="93"/><line style="stroke: #000000; stroke-width: 1.5;" x1="168" x2="295" y1="102" y2="102"/><line style="stroke: #000000; stroke-width: 1.5;" x1="295" x2="295" y1="102" y2="239"/><text fill="#000000" font-family="sans-serif" font-size="14" font-weight="bold" lengthAdjust="spacingAndGlyphs" textLength="61" x="202" y="118.5352">Broker 1</text><!--cluster Broker 2--><polygon fill="#FFFFFF" filter="url(#fysc7ko3287ny)" points="168,257,178,247,305,247,305,384,295,394,168,394,168,257" style="stroke: #000000; stroke-width: 1.5;"/><line style="stroke: #000000; stroke-width: 1.5;" x1="295" x2="304" y1="257" y2="248"/><line style="stroke: #000000; stroke-width: 1.5;" x1="168" x2="295" y1="257" y2="257"/><line style="stroke: #000000; stroke-width: 1.5;" x1="295" x2="295" y1="257" y2="394"/><text fill="#000000" font-family="sans-serif" font-size="14" font-weight="bold" lengthAdjust="spacingAndGlyphs" textLength="61" x="202" y="273.5352">Broker 2</text><!--cluster Consumer Group A--><polygon fill="#FFFFFF" filter="url(#fysc7ko3287ny)" points="357,26,367,16,569,16,569,153,559,163,357,163,357,26" style="stroke: #000000; stroke-width: 1.5;"/><line style="stroke: #000000; stroke-width: 1.5;" x1="559" x2="568" y1="26" y2="17"/><line style="stroke: #000000; stroke-width: 1.5;" x1="357" x2="559" y1="26" y2="26"/><line style="stroke: #000000; stroke-width: 1.5;" x1="559" x2="559" y1="26" y2="163"/><text fill="#000000" font-family="sans-serif" font-size="14" font-weight="bold" lengthAdjust="spacingAndGlyphs" textLength="136" x="391" y="42.5352">Consumer Group A</text><!--cluster Consumer Group B--><polygon fill="#FFFFFF" filter="url(#fysc7ko3287ny)" points="358,181,368,171,569,171,569,450,559,460,358,460,358,181" style="stroke: #000000; stroke-width: 1.5;"/><line style="stroke: #000000; stroke-width: 1.5;" x1="559" x2="568" y1="181" y2="172"/><line style="stroke: #000000; stroke-width: 1.5;" x1="358" x2="559" y1="181" y2="181"/><line style="stroke: #000000; stroke-width: 1.5;" x1="559" x2="559" y1="181" y2="460"/><text fill="#000000" font-family="sans-serif" font-size="14" font-weight="bold" lengthAdjust="spacingAndGlyphs" textLength="135" x="392" y="197.5352">Consumer Group B</text><!--entity Producer--><polygon fill="#FFFFFF" filter="url(#fysc7ko3287ny)" points="6,408,16,398,108,398,108,434.4883,98,444.4883,6,444.4883,6,408" style="stroke: #000000; stroke-width: 1.5;"/><line style="stroke: #000000; stroke-width: 1.5;" x1="98" x2="107" y1="408" y2="399"/><line style="stroke: #000000; stroke-width: 1.5;" x1="6" x2="98" y1="408" y2="408"/><line style="stroke: #000000; stroke-width: 1.5;" x1="98" x2="98" y1="408" y2="444.4883"/><text fill="#000000" font-family="sans-serif" font-size="14" lengthAdjust="spacingAndGlyphs" textLength="62" x="21" y="431.5352">Producer</text><!--entity Partition 1--><rect fill="#FEFECE" filter="url(#fysc7ko3287ny)" height="36.4883" style="stroke: #A80036; stroke-width: 1.5;" width="91" x="191" y="124"/><rect fill="#FEFECE" height="5" style="stroke: #A80036; stroke-width: 1.5;" width="10" x="186" y="129"/><rect fill="#FEFECE" height="5" style="stroke: #A80036; stroke-width: 1.5;" width="10" x="186" y="150.4883"/><text fill="#000000" font-family="sans-serif" font-size="14" lengthAdjust="spacingAndGlyphs" textLength="71" x="201" y="147.5352">Partition 1</text><!--entity Partition 4--><rect fill="#FEFECE" filter="url(#fysc7ko3287ny)" height="36.4883" style="stroke: #A80036; stroke-width: 1.5;" width="91" x="191" y="195"/><rect fill="#FEFECE" height="5" style="stroke: #A80036; stroke-width: 1.5;" width="10" x="186" y="200"/><rect fill="#FEFECE" height="5" style="stroke: #A80036; stroke-width: 1.5;" width="10" x="186" y="221.4883"/><text fill="#000000" font-family="sans-serif" font-size="14" lengthAdjust="spacingAndGlyphs" textLength="71" x="201" y="218.5352">Partition 4</text><!--entity Partition 2--><rect fill="#FEFECE" filter="url(#fysc7ko3287ny)" height="36.4883" style="stroke: #A80036; stroke-width: 1.5;" width="91" x="191" y="279"/><rect fill="#FEFECE" height="5" style="stroke: #A80036; stroke-width: 1.5;" width="10" x="186" y="284"/><rect fill="#FEFECE" height="5" style="stroke: #A80036; stroke-width: 1.5;" width="10" x="186" y="305.4883"/><text fill="#000000" font-family="sans-serif" font-size="14" lengthAdjust="spacingAndGlyphs" textLength="71" x="201" y="302.5352">Partition 2</text><!--entity Partition 3--><rect fill="#FEFECE" filter="url(#fysc7ko3287ny)" height="36.4883" style="stroke: #A80036; stroke-width: 1.5;" width="91" x="191" y="350"/><rect fill="#FEFECE" height="5" style="stroke: #A80036; stroke-width: 1.5;" width="10" x="186" y="355"/><rect fill="#FEFECE" height="5" style="stroke: #A80036; stroke-width: 1.5;" width="10" x="186" y="376.4883"/><text fill="#000000" font-family="sans-serif" font-size="14" lengthAdjust="spacingAndGlyphs" textLength="71" x="201" y="373.5352">Partition 3</text><!--entity Consumer A1--><rect fill="#FEFECE" filter="url(#fysc7ko3287ny)" height="36.4883" style="stroke: #A80036; stroke-width: 1.5;" width="114" x="406" y="48"/><rect fill="#FEFECE" height="5" style="stroke: #A80036; stroke-width: 1.5;" width="10" x="401" y="53"/><rect fill="#FEFECE" height="5" style="stroke: #A80036; stroke-width: 1.5;" width="10" x="401" y="74.4883"/><text fill="#000000" font-family="sans-serif" font-size="14" lengthAdjust="spacingAndGlyphs" textLength="94" x="416" y="71.5352">Consumer A1</text><!--entity Consumer A2--><rect fill="#FEFECE" filter="url(#fysc7ko3287ny)" height="36.4883" style="stroke: #A80036; stroke-width: 1.5;" width="114" x="406" y="119"/><rect fill="#FEFECE" height="5" style="stroke: #A80036; stroke-width: 1.5;" width="10" x="401" y="124"/><rect fill="#FEFECE" height="5" style="stroke: #A80036; stroke-width: 1.5;" width="10" x="401" y="145.4883"/><text fill="#000000" font-family="sans-serif" font-size="14" lengthAdjust="spacingAndGlyphs" textLength="94" x="416" y="142.5352">Consumer A2</text><!--entity Consumer B1--><rect fill="#FEFECE" filter="url(#fysc7ko3287ny)" height="36.4883" style="stroke: #A80036; stroke-width: 1.5;" width="112" x="407" y="203"/><rect fill="#FEFECE" height="5" style="stroke: #A80036; stroke-width: 1.5;" width="10" x="402" y="208"/><rect fill="#FEFECE" height="5" style="stroke: #A80036; stroke-width: 1.5;" width="10" x="402" y="229.4883"/><text fill="#000000" font-family="sans-serif" font-size="14" lengthAdjust="spacingAndGlyphs" textLength="92" x="417" y="226.5352">Consumer B1</text><!--entity Consumer B2--><rect fill="#FEFECE" filter="url(#fysc7ko3287ny)" height="36.4883" style="stroke: #A80036; stroke-width: 1.5;" width="112" x="407" y="274"/><rect fill="#FEFECE" height="5" style="stroke: #A80036; stroke-width: 1.5;" width="10" x="402" y="279"/><rect fill="#FEFECE" height="5" style="stroke: #A80036; stroke-width: 1.5;" width="10" x="402" y="300.4883"/><text fill="#000000" font-family="sans-serif" font-size="14" lengthAdjust="spacingAndGlyphs" textLength="92" x="417" y="297.5352">Consumer B2</text><!--entity Consumer B3--><rect fill="#FEFECE" filter="url(#fysc7ko3287ny)" height="36.4883" style="stroke: #A80036; stroke-width: 1.5;" width="112" x="407" y="345"/><rect fill="#FEFECE" height="5" style="stroke: #A80036; stroke-width: 1.5;" width="10" x="402" y="350"/><rect fill="#FEFECE" height="5" style="stroke: #A80036; stroke-width: 1.5;" width="10" x="402" y="371.4883"/><text fill="#000000" font-family="sans-serif" font-size="14" lengthAdjust="spacingAndGlyphs" textLength="92" x="417" y="368.5352">Consumer B3</text><!--entity Consumer B4--><rect fill="#FEFECE" filter="url(#fysc7ko3287ny)" height="36.4883" style="stroke: #A80036; stroke-width: 1.5;" width="112" x="407" y="416"/><rect fill="#FEFECE" height="5" style="stroke: #A80036; stroke-width: 1.5;" width="10" x="402" y="421"/><rect fill="#FEFECE" height="5" style="stroke: #A80036; stroke-width: 1.5;" width="10" x="402" y="442.4883"/><text fill="#000000" font-family="sans-serif" font-size="14" lengthAdjust="spacingAndGlyphs" textLength="92" x="417" y="439.5352">Consumer B4</text><!--link Producer to Topic--><path d="M108.4375,421 C121.0764,421 134.9632,421 148.7856,421 C152.2412,421 155.6928,421 159.1198,421 C159.334,421 159.5481,421 159.7621,421 " fill="none" id="Producer-Topic" style="stroke: #A80036; stroke-width: 1.0;"/><polygon fill="#A80036" points="159.7621,421,150.7621,417,154.7621,421,150.7621,425,159.7621,421" style="stroke: #A80036; stroke-width: 1.0;"/><!--link Partition 1 to Consumer A1--><path d="M282.2431,126.3274 C304.7431,118.6461 332.2765,109.2876 357,101 C371.858,96.0194 387.9052,90.6934 402.9079,85.7369 " fill="none" id="Partition 1-Consumer A1" style="stroke: #A80036; stroke-width: 1.0;"/><polygon fill="#A80036" points="407.9526,84.0713,398.1523,83.0949,403.2047,85.639,400.6606,90.6915,407.9526,84.0713" style="stroke: #A80036; stroke-width: 1.0;"/><!--link Partition 4 to Consumer A1--><path d="M282.1957,196.9986 C293.1007,191.7614 304.1354,185.1418 313,177 C341.7456,150.5983 326.7116,125.6165 357,101 C369.6754,90.6983 385.4938,83.3861 401.0119,78.2116 " fill="none" id="Partition 4-Consumer A1" style="stroke: #A80036; stroke-width: 1.0;"/><polygon fill="#A80036" points="405.8144,76.6734,396.0232,75.6093,401.0527,78.1985,398.4634,83.228,405.8144,76.6734" style="stroke: #A80036; stroke-width: 1.0;"/><!--link Partition 2 to Consumer A2--><path d="M272.0919,278.9088 C286.0658,270.5676 301.481,259.6864 313,247 C341.3308,215.798 323.8201,188.9863 357,163 C369.5314,153.1855 385.2523,147.0125 400.7203,143.1479 " fill="none" id="Partition 2-Consumer A2" style="stroke: #A80036; stroke-width: 1.0;"/><polygon fill="#A80036" points="405.9512,141.9239,396.2765,140.0799,401.0827,143.0632,398.0994,147.8694,405.9512,141.9239" style="stroke: #A80036; stroke-width: 1.0;"/><!--link Partition 3 to Consumer A2--><path d="M282.234,354.3082 C293.6583,348.9628 304.9373,341.713 313,332 C362.5739,272.2796 301.7305,217.492 357,163 C368.8001,151.3659 384.9082,144.6464 401.0039,140.8413 " fill="none" id="Partition 3-Consumer A2" style="stroke: #A80036; stroke-width: 1.0;"/><polygon fill="#A80036" points="405.994,139.7518,396.3479,137.7637,401.1091,140.8184,398.0544,145.5796,405.994,139.7518" style="stroke: #A80036; stroke-width: 1.0;"/><!--link Partition 1 to Consumer B1--><path d="M282.0632,157.8918 C317.7929,170.3538 367.7204,187.7678 406.08,201.1471 " fill="none" id="Partition 1-Consumer B1" style="stroke: #A80036; stroke-width: 1.0;"/><polygon fill="#A80036" points="411.1745,202.924,403.9939,196.1831,406.4534,201.2773,401.3592,203.7368,411.1745,202.924" style="stroke: #A80036; stroke-width: 1.0;"/><!--link Partition 4 to Consumer B2--><path d="M282.3183,228.23 C292.4498,231.693 303.1107,235.4107 313,239 C332.7066,246.1524 337.2926,248.8498 357,256 C371.937,261.4194 388.1447,267.0491 403.288,272.202 " fill="none" id="Partition 4-Consumer B2" style="stroke: #A80036; stroke-width: 1.0;"/><polygon fill="#A80036" points="408.3794,273.9302,401.1427,267.2496,403.6447,272.3231,398.5713,274.8251,408.3794,273.9302" style="stroke: #A80036; stroke-width: 1.0;"/><!--link Partition 2 to Consumer B3--><path d="M282.0632,310.2767 C316.4329,320.2917 363.9403,334.1349 401.6509,345.1235 " fill="none" id="Partition 2-Consumer B3" style="stroke: #A80036; stroke-width: 1.0;"/><polygon fill="#A80036" points="406.669,346.5857,399.1475,340.2275,401.8687,345.1869,396.9093,347.9081,406.669,346.5857" style="stroke: #A80036; stroke-width: 1.0;"/><!--link Partition 3 to Consumer B4--><path d="M282.2224,381.106 C292.3594,384.0237 303.0467,387.109 313,390 C342.1964,398.4802 374.5646,407.9645 401.7376,415.95 " fill="none" id="Partition 3-Consumer B4" style="stroke: #A80036; stroke-width: 1.0;"/><polygon fill="#A80036" points="406.749,417.423,399.2424,411.0472,401.952,416.0129,396.9862,418.7224,406.749,417.423" style="stroke: #A80036; stroke-width: 1.0;"/><!--
@startuml
left to right direction

node "Producer" {
}

rectangle "Topic" {
    node "Broker 1" {
        [Partition 1]
        [Partition 4]
    }

    node "Broker 2" {
        [Partition 2]
        [Partition 3]
    }    
}

node "Consumer Group A" {
    [Consumer A1]
    [Consumer A2]
}

node "Consumer Group B" {
    [Consumer B1]
    [Consumer B2]
    [Consumer B3]
    [Consumer B4]
}

Producer - -> Topic

[Partition 1] - -> [Consumer A1]
[Partition 4] - -> [Consumer A1]

[Partition 2] - -> [Consumer A2]
[Partition 3] - -> [Consumer A2]

[Partition 1] - -> [Consumer B1]
[Partition 4] - -> [Consumer B2]

[Partition 2] - -> [Consumer B3]
[Partition 3] - -> [Consumer B4]

@enduml

PlantUML version 1.2018.03(Thu Apr 05 17:59:15 WEST 2018)
(GPL source distribution)
Java Runtime: Java(TM) SE Runtime Environment
JVM: Java HotSpot(TM) 64-Bit Server VM
Java Version: 10.0.1+10
Operating System: Mac OS X
OS Version: 10.13.6
Default Encoding: US-ASCII
Language: en
Country: PT
--></g></svg>